<svg version="1.1" xmlns="http://www.w3.org/2000/svg" style="display: block;" viewBox="0 0 2048 2048" width="1024" height="1024" preserveAspectRatio="none">
<path transform="translate(0,0)" fill="#a4be7b" d="M 1116.74 505.367 C 1133.91 502.977 1159.18 505.738 1175.41 511.905 C 1201.84 521.949 1215.41 536.539 1227 561.31 C 1267.8 571.665 1302.5 589.911 1289 639.123 C 1323.28 662.722 1348.31 689.65 1337.28 733.475 C 1383.1 765.75 1424.34 815.284 1372.93 864.537 C 1402.09 895.348 1407.38 940.555 1368.08 967.537 C 1357.97 974.477 1348.5 977.208 1336.77 980.684 C 1341.87 1026.62 1322.82 1048.14 1279.73 1061.15 C 1264.07 1064.71 1251.56 1064.83 1235.72 1064.97 C 1223.96 1085.61 1216.1 1097.9 1194.32 1109.64 C 1138.29 1139.86 1066.57 1124.66 1035.11 1067.76 C 1037.22 1008.32 1035.1 941.098 1035.06 881.163 L 1035.33 544.328 C 1053.38 521.719 1088.9 509.137 1116.74 505.367 z"/>
<path transform="translate(0,0)" fill="#a4be7b" d="M 902.71 505.379 C 939.283 502.471 987.921 514.24 1012.24 543.442 L 1012.97 869.03 C 1012.88 936.478 1012.03 1001.86 1012.82 1069.65 C 1001.29 1089.16 990.878 1100.11 970.461 1110.9 C 941.734 1126.03 908.15 1129.04 877.19 1119.27 C 847.505 1109.95 826.772 1092.22 812.335 1064.93 L 796.624 1064.57 L 791.978 1064.11 C 741.192 1059.16 705.185 1036.3 711.157 980.351 C 705.78 978.855 700.567 977.484 695.419 975.32 C 645.773 954.452 637.701 901.807 675.969 865.655 C 628.309 815.36 659.925 763.609 711.803 733.906 C 696.341 691.882 728.542 661.238 759.727 639.134 C 743.159 591.516 783.586 570.287 822.266 561.598 C 824.979 552.941 829.308 544.876 835.024 537.829 C 852.335 516.474 876.293 508.248 902.71 505.379 z"/>
<path transform="translate(0,0)" fill="#a4be7b" d="M 1041.67 310.471 C 1076.84 309.197 1112.06 309.594 1147.2 311.66 C 1309.41 322.106 1476.78 372.736 1603.97 476.774 C 1618.48 488.639 1654.36 512.406 1636.28 532.507 C 1626.14 543.769 1606.33 545.744 1592 540.756 C 1567.44 528.682 1544.45 510.53 1521.07 495.679 C 1485.4 473.25 1449.05 451.904 1412.09 431.671 C 1369.64 408.343 1328.77 385.981 1281.2 374.856 C 1224 361.478 1164.82 356.519 1106.16 357.7 C 1084.25 358.181 1062.36 359.285 1040.51 361.011 C 1030.03 361.819 1009.04 361.851 1001.88 369.302 C 1000.94 372.695 1000.86 372.456 1001.98 375.763 C 1006.01 380.156 1011.39 380.403 1017.03 379.82 C 1031.6 378.317 1046.12 376.971 1060.73 376.025 C 1094.04 373.835 1127.45 373.61 1160.79 375.352 C 1211.54 378.295 1323.85 390.479 1361.88 429.397 C 1364.93 432.399 1369.5 440.939 1368.12 445.385 C 1357.16 480.745 1297.6 463.471 1271.4 458.727 C 1239.06 452.85 1194.71 443.525 1162.85 439.779 C 1098.91 432.264 1021.66 430.235 957.238 435.297 C 890.162 440.568 805.991 452.365 742.869 474.84 C 647.048 509.54 562.288 568.013 491.087 640.452 C 473 658.853 459.773 675.152 443.125 694.186 C 415.717 703.114 370.019 690.177 366.529 658.318 C 364.303 637.998 398.973 601.434 412.313 586.266 C 571.676 405.077 806.809 322.239 1041.67 310.471 z"/>
<path transform="translate(0,0)" fill="#a4be7b" d="M 1619.61 888.353 C 1645.68 885.369 1690.89 904.917 1679.87 938.368 C 1674.98 953.244 1656 980.48 1646.5 994.378 C 1441.49 1294.24 994.504 1388.58 666.299 1280.54 C 599.715 1259.25 536.578 1228.4 478.868 1188.95 C 466.638 1180.58 438.037 1163.84 445.255 1146.47 C 447.87 1140.17 454.515 1135.66 460.635 1133.21 C 470.023 1129.39 480.429 1128.87 490.151 1131.73 C 501.223 1135.03 537.548 1155.86 550.026 1162.43 C 583.244 1180.12 617.056 1196.67 651.404 1212.05 C 721.497 1245.19 774.519 1268.44 852.078 1275.65 C 919.935 1281.95 986.186 1277.35 1053.45 1267.95 C 1062.19 1266.72 1085.57 1265.64 1091.66 1259.02 C 1093.75 1256.74 1093.69 1255.66 1093.97 1252.72 C 1089.89 1243.38 1076.34 1248.13 1068.56 1249.37 C 980.099 1263.55 886.34 1268.88 798.042 1250.79 C 778.573 1246.81 756.506 1241.45 739.659 1230.43 C 709.031 1209.02 730.644 1186.23 760.568 1185.94 C 802.901 1185.53 844.25 1192.78 886.277 1196.22 C 952.083 1201.5 1018.23 1200.84 1083.92 1194.24 C 1128.23 1189.63 1172.18 1182.06 1215.49 1171.59 C 1243.2 1164.72 1277.13 1155.47 1303.73 1144.94 C 1386.5 1112.18 1458.66 1058.44 1519.93 994.381 C 1537.81 975.691 1555.35 953.703 1571.57 933.528 C 1580.8 922.04 1589.06 908.582 1598.31 896.985 C 1604.56 889.135 1609.9 889.246 1619.61 888.353 z"/>
<path transform="translate(0,0)" fill="#a4be7b" d="M 261.903 1454.99 C 274.88 1455.85 287.998 1454.61 300.976 1455.36 C 342.703 1457.74 392.126 1448.63 431.75 1462.75 C 463.4 1474.03 476.468 1505.1 464.247 1535.26 C 457.421 1552.1 440.374 1558.93 424.681 1564.86 C 437.546 1567.59 446.83 1570.55 457.74 1578.05 C 486.363 1597.74 491.26 1635.51 471.377 1663.36 C 443.747 1697.51 385.855 1692.72 347.111 1692.46 C 319.018 1692.27 290.008 1691.59 262.011 1693.05 L 261.74 1679.4 C 280.23 1672.08 285.913 1671 286.177 1649.73 C 286.469 1611.06 286.503 1572.32 286.403 1533.65 C 286.363 1518.16 287.92 1494.93 283.029 1480.6 C 270.616 1467.41 258.967 1476.69 261.903 1454.99 z M 337.28 1671.8 C 364.808 1673 395.574 1677.15 417.535 1658.74 C 427.161 1648.14 430.384 1636.08 429.345 1622.05 C 425.352 1568.14 372.428 1577.67 336.122 1577.04 C 336.39 1606.9 335.587 1642.64 337.28 1671.8 z M 337 1556.46 C 361.843 1555.99 385.412 1560.26 405.785 1545.9 C 420.858 1530.23 421.037 1500.28 404.89 1485.79 C 389.146 1471.65 356.361 1474.27 336.14 1474.99 C 336.756 1500.88 335.491 1531.66 337 1556.46 z"/>
<path transform="translate(0,0)" fill="#a4be7b" d="M 880.939 1520.41 C 922.256 1517.28 964.452 1527.1 968.334 1576.11 C 970.089 1598.27 967.792 1621.93 968.542 1644.37 C 969.224 1664.78 969.55 1667.54 991.543 1668.6 C 993.406 1668.69 995.556 1671.24 995.676 1673.04 C 996.951 1685.67 978.956 1693 968.873 1695.24 C 947.282 1700.04 927.723 1692.68 922.899 1669.51 L 922.677 1668.39 C 921.754 1669.56 920.815 1670.72 919.861 1671.88 C 897.673 1698.56 850.455 1705.97 823.603 1683.24 C 815.547 1674.92 810.975 1666.29 810.303 1654.64 C 807.184 1600.64 882.919 1592.22 920.532 1590.69 C 918.386 1564.08 922.265 1531.37 879.363 1541.94 C 858.518 1547.07 869.028 1577.12 851.418 1582.12 C 840.65 1585.18 820.963 1578.47 818.999 1565.4 C 814.196 1534.18 858.768 1523.39 880.939 1520.41 z M 866.991 1663.36 C 888.463 1678.42 919.441 1662.38 920.378 1636.41 C 920.701 1627.45 920.269 1618.37 920.506 1609.33 L 919.695 1608.42 C 899.326 1609.01 858.339 1616.54 858.318 1645.31 C 858.313 1651.97 862.503 1658.53 866.991 1663.36 z"/>
<path transform="translate(0,0)" fill="#a4be7b" d="M 1420.5 1520.29 C 1478.62 1517.8 1484.4 1553.64 1484.39 1600.05 L 1484.36 1639.71 C 1484.37 1662.79 1482.39 1671.65 1506.03 1679.83 L 1506.18 1692.94 C 1501.59 1692.43 1496.97 1692.4 1492.36 1692.39 C 1467.57 1692.36 1442.68 1691.82 1417.91 1692.94 L 1416.75 1679.73 C 1427.67 1674.53 1435.33 1672.25 1436.26 1658.75 C 1437.54 1637.19 1436.92 1614.44 1436.76 1592.9 C 1436.62 1573.19 1433.83 1553.69 1409.92 1551.96 C 1386.71 1550.27 1372.88 1564.39 1370.57 1586.27 C 1370.03 1599.73 1368.26 1656.97 1372.93 1666.81 C 1376.67 1674.68 1384.28 1676.97 1391.85 1679.77 C 1392.14 1683.72 1392.11 1689 1392.21 1693.07 C 1382.62 1691.94 1367.3 1692.29 1357.27 1692.29 C 1338.87 1692.13 1320.47 1692.34 1302.08 1692.92 L 1301.5 1679.55 C 1306.38 1677.84 1311.81 1676.26 1316.11 1673.35 C 1320.51 1670.39 1321.34 1666.22 1322.22 1661.27 C 1324.35 1649.31 1324.91 1570 1320.84 1561.74 C 1317.12 1554.21 1306.24 1554.66 1302.71 1548.13 C 1301.24 1545.42 1301.92 1542.76 1302.54 1539.95 C 1307.87 1533.54 1353.79 1519.69 1362.85 1522.11 C 1368.14 1527.51 1367.49 1544.59 1367.68 1552.63 C 1383.39 1533.86 1395.46 1523.5 1420.5 1520.29 z"/>
<path transform="translate(0,0)" fill="#a4be7b" d="M 1731.67 1520.39 L 1732.91 1520.3 C 1777.91 1517.55 1811.85 1542.46 1815.92 1589.28 C 1816.56 1599.81 1812.64 1606.31 1801.38 1606.08 C 1768.01 1605.41 1733.64 1607.01 1700.41 1606.48 C 1701.56 1620.07 1705.87 1633.1 1714.73 1643.79 C 1731.36 1663.84 1759.3 1668.01 1782.64 1658.12 C 1788.99 1655.42 1800.38 1645.45 1806.12 1641.05 C 1806.97 1641.13 1807.82 1641.2 1808.68 1641.28 C 1810.92 1643.41 1813.39 1646.05 1815.59 1648.29 C 1813.04 1654.38 1809.73 1660.13 1805.75 1665.4 C 1793.22 1681.96 1774.63 1692.87 1754.06 1695.72 C 1629.21 1712.15 1616.66 1533.49 1731.67 1520.39 z M 1700.59 1587.26 L 1735.21 1587.16 C 1745.47 1587.14 1757 1587.34 1767.15 1587.01 C 1774.67 1564.51 1762.49 1541.62 1737.65 1540.3 C 1711.18 1543.46 1702.02 1562.95 1700.59 1587.26 z"/>
<path transform="translate(0,0)" fill="#a4be7b" d="M 1197.53 1520.4 C 1217.45 1518.49 1237.18 1521.98 1255.71 1535.37 C 1272.77 1547.65 1288.66 1583.33 1278.27 1602.63 C 1275.77 1607.29 1239.77 1606.04 1233.45 1606.05 L 1165.85 1606.12 C 1168.05 1619.63 1170.94 1631.21 1178.91 1641.93 C 1201.48 1672.31 1245.04 1667.8 1269.79 1643 C 1271.99 1640.79 1272.18 1641.34 1274.77 1641.71 L 1281.82 1648.09 C 1279.41 1653.76 1276.51 1659.45 1272.87 1664.43 C 1260.63 1681.29 1242.12 1692.52 1221.51 1695.58 C 1096.9 1713.09 1081.29 1533.45 1197.53 1520.4 z M 1165.46 1587.09 L 1197.93 1587.22 C 1204.2 1587.32 1228.68 1588.66 1232.52 1585.15 C 1241.4 1577.05 1230.44 1552.7 1222.04 1546.98 C 1214.1 1541.49 1212.6 1541.08 1203.88 1540.43 C 1173.94 1543 1170.45 1561.98 1165.46 1587.09 z"/>
<path transform="translate(0,0)" fill="#a4be7b" d="M 730.152 1524.97 C 746.456 1524.99 786.595 1525.88 801.431 1524.23 L 801.846 1537.73 C 799.58 1539.8 783.916 1544.3 781.052 1549.22 C 764.596 1577.46 746.926 1623.08 734.618 1652.21 C 728.768 1666.01 722.534 1679.64 715.923 1693.09 C 705.966 1693.31 695.163 1693.03 685.14 1692.97 C 677.038 1679.39 669.977 1662.33 663.626 1647.76 L 637.748 1588.3 C 632.211 1575.69 626.078 1559.84 617.913 1548.9 C 614.152 1543.86 605.851 1541 599.992 1538.64 C 599.967 1534.36 599.49 1528.19 600.991 1524.43 C 631.466 1524.98 661.824 1524.33 692.27 1524.84 C 692.788 1528.51 692.768 1534.08 692.873 1537.92 C 687.128 1540.41 678.074 1542.74 675.68 1549.28 C 672.077 1559.13 705.938 1630.42 712.356 1645.48 C 718.663 1632.06 751.429 1558.56 747.887 1549.31 C 745.277 1542.49 736.29 1540.49 730.109 1538.59 L 730.152 1524.97 z"/>
<path transform="translate(0,0)" fill="#a4be7b" d="M 1069.48 1442.3 C 1071.71 1442.43 1073.22 1442.42 1075.26 1443.44 C 1077.38 1444.49 1078.26 1446.51 1078.8 1448.71 C 1080.49 1455.6 1078.78 1475.97 1078.78 1484.58 C 1078.76 1508.64 1076.2 1654.44 1081.14 1666.4 C 1084.27 1674.01 1093.3 1676.82 1100.22 1679.88 L 1100.43 1692.83 C 1074.75 1692.54 1049.06 1692.49 1023.38 1692.69 L 1010.95 1693.06 L 1011 1678.88 C 1014.93 1677.71 1019.22 1676.66 1022.86 1674.76 C 1026.48 1672.87 1029.26 1670.02 1030.37 1666.03 C 1033.14 1656.07 1033.45 1490.7 1030.86 1483.85 C 1027.52 1474.98 1015.74 1475.1 1011.07 1467.3 C 1010.39 1463.65 1010.67 1463.62 1011.94 1460.25 C 1019.07 1454.28 1059.14 1444.01 1069.48 1442.3 z"/>
<path transform="translate(0,0)" fill="#a4be7b" d="M 1565.98 1479.28 L 1584.83 1479.87 C 1584.8 1494.91 1584.87 1509.95 1585.04 1524.99 C 1596.02 1523.7 1620.22 1524.62 1632.88 1524.45 C 1633.05 1531.26 1633.87 1538.16 1631.53 1544.4 C 1626.33 1546.88 1592.99 1546 1584.9 1545.97 C 1584.4 1572.11 1585.19 1598.62 1584.8 1624.8 C 1584.65 1635.16 1584.03 1650.73 1590.18 1659.39 C 1601.47 1675.3 1620.33 1663.84 1632.41 1655.54 C 1642.66 1667.28 1638.39 1669.53 1629.52 1680.11 C 1603.69 1705.66 1547.62 1704.41 1539.54 1662.24 C 1536.97 1648.8 1537.99 1631.37 1537.99 1617.44 C 1538.03 1593.68 1537.94 1569.93 1537.7 1546.17 L 1513.03 1546 C 1513.03 1539.97 1512.9 1533.94 1512.65 1527.92 C 1550.49 1512.54 1547.81 1510.59 1565.98 1479.28 z"/>
<path transform="translate(0,0)" fill="#a4be7b" d="M 563.715 1521.25 C 565.191 1521.26 567.686 1521.41 568.992 1522.08 C 570.999 1523.1 571.56 1524.22 572.094 1526.29 C 574.484 1535.59 573.119 1547.48 573.05 1557.06 C 572.918 1575.45 570.401 1654.33 575.182 1666.29 C 578.496 1674.57 587.279 1676.99 594.863 1680 L 594.909 1693.03 C 575.099 1691.22 538.294 1692.37 517.5 1692.72 L 504.604 1693.08 C 504.243 1688.87 504.117 1684.33 503.918 1680.09 C 509.851 1676.77 520.1 1674.26 523.043 1667.49 C 526.422 1659.71 526.53 1567.83 522.76 1560.86 C 519.314 1554.48 511.415 1553.38 505.04 1551.8 C 504.608 1547.29 503.751 1543.58 505.305 1539.44 C 511.256 1533.58 553.646 1523.35 563.715 1521.25 z"/>
<path transform="translate(0,0)" fill="#a4be7b" d="M 1545.29 1768.73 C 1566.12 1763.58 1587.17 1776.32 1592.27 1797.16 C 1597.37 1818 1584.58 1839.02 1563.73 1844.08 C 1542.94 1849.12 1522 1836.38 1516.91 1815.6 C 1511.83 1794.83 1524.52 1773.86 1545.29 1768.73 z M 1558.56 1834.71 C 1574.27 1832.59 1585.27 1818.12 1583.1 1802.42 C 1580.94 1786.72 1566.44 1775.77 1550.75 1777.98 C 1535.12 1780.18 1524.22 1794.61 1526.38 1810.24 C 1528.53 1825.87 1542.93 1836.81 1558.56 1834.71 z"/>
<path transform="translate(0,0)" fill="#a4be7b" d="M 455.308 1768.75 C 475.89 1763.77 496.658 1776.23 501.959 1796.73 C 507.259 1817.23 495.13 1838.19 474.715 1843.81 C 461.221 1847.53 446.771 1843.68 436.91 1833.75 C 427.048 1823.82 423.305 1809.34 427.117 1795.87 C 430.929 1782.41 441.704 1772.04 455.308 1768.75 z M 469.576 1834.88 C 485.27 1832.19 495.815 1817.29 493.139 1801.59 C 490.463 1785.9 475.579 1775.33 459.879 1777.99 C 444.149 1780.65 433.562 1795.56 436.242 1811.29 C 438.923 1827.02 453.854 1837.58 469.576 1834.88 z"/>
<path transform="translate(0,0)" fill="#a4be7b" d="M 1395.57 1768.8 C 1416.31 1763.78 1437.2 1776.54 1442.2 1797.29 C 1447.2 1818.04 1434.42 1838.92 1413.66 1843.9 C 1392.93 1848.87 1372.09 1836.11 1367.1 1815.39 C 1362.11 1794.66 1374.85 1773.81 1395.57 1768.8 z M 1412.5 1833.92 C 1427.69 1829.6 1436.58 1813.86 1432.42 1798.62 C 1428.27 1783.38 1412.61 1774.33 1397.33 1778.34 C 1387.31 1780.96 1379.47 1788.77 1376.8 1798.78 C 1374.13 1808.79 1377.04 1819.47 1384.43 1826.74 C 1391.81 1834 1402.53 1836.75 1412.5 1833.92 z"/>
<path transform="translate(0,0)" fill="#a4be7b" d="M 653.018 1769.87 C 675.858 1769.73 719.121 1763.79 710.466 1802.11 C 708.587 1810.43 702.822 1814.46 695.683 1818.36 C 701.503 1826.3 707.276 1834.27 713.001 1842.28 C 710.513 1843.29 706.06 1842.91 703.158 1842.87 C 699.231 1841.04 688.998 1824.55 685.962 1819.96 L 663.456 1819.92 C 663.515 1824.01 664.293 1840.65 662.418 1843.08 C 658.885 1842.95 656.9 1843.09 653.51 1841.94 C 652.468 1836.64 652.896 1822.96 652.908 1816.84 L 653.018 1769.87 z M 663.3 1811.02 C 675.344 1811.32 687.223 1813.31 696.845 1806.24 C 702.262 1799.65 705.703 1789.42 697.677 1783.53 C 688.146 1776.53 674.415 1777.91 663.25 1778.1 C 663.206 1789.07 663.223 1800.05 663.3 1811.02 z"/>
<path transform="translate(0,0)" fill="#a4be7b" d="M 1121.13 1769.22 C 1134.57 1769.64 1162.49 1767.22 1171.53 1775.16 C 1190.82 1792.1 1179.73 1816.16 1155.95 1819.74 C 1147.94 1820.23 1139.62 1820.02 1131.57 1819.94 C 1131.67 1826.15 1132.13 1835.57 1131.11 1841.4 C 1128.27 1843.15 1124.66 1842.67 1121.83 1841.17 C 1120.72 1835.49 1121.15 1779.06 1121.13 1769.22 z M 1131.92 1811.05 C 1144.31 1811.78 1156.08 1813.29 1166.58 1805.76 C 1172.07 1798.18 1173.89 1787.97 1164.69 1782.61 C 1153.67 1776.19 1143.32 1779.02 1131.75 1778.45 C 1131.79 1789.23 1131.72 1800.3 1131.92 1811.05 z"/>
<path transform="translate(0,0)" fill="#a4be7b" d="M 808.088 1769.35 C 821.897 1770.32 849.838 1766.77 858.972 1775.8 C 876.756 1793.37 865.257 1817.25 841.26 1819.33 C 833.463 1819.33 825.666 1819.39 817.87 1819.52 C 817.771 1827.66 820.406 1836.18 815.877 1841.43 C 812.812 1842.7 812.742 1842.99 809.378 1842.52 C 806.693 1838.34 807.503 1778.42 808.088 1769.35 z M 817.43 1811.6 C 830.784 1810.89 838.078 1813.21 850.554 1807.8 C 854.372 1804.11 856.515 1801.4 856.749 1795.84 C 857.666 1774.12 832.16 1777.98 817.534 1778.31 C 817.626 1789.21 817.846 1800.75 817.43 1811.6 z"/>
<path transform="translate(0,0)" fill="#a4be7b" d="M 545.055 1446.31 C 559.968 1446.42 573.551 1451.65 576.873 1467.85 C 578.326 1474.64 576.959 1481.73 573.087 1487.49 C 567.993 1495.05 560.478 1497.87 551.938 1499.33 C 512.78 1502.53 506.374 1452.14 545.055 1446.31 z"/>
<path transform="translate(0,0)" fill="#a4be7b" d="M 938.07 1769.12 C 942.037 1769.01 942.964 1768.98 946.831 1769.63 C 951.674 1772.53 977.57 1833.16 981.767 1842.87 C 966.805 1843.15 968.679 1837.24 963.377 1824.33 L 947.75 1824.25 C 939.485 1824.26 931.22 1824.39 922.959 1824.64 C 919.806 1831.02 918.773 1838.45 913.373 1842.35 C 910.108 1842.79 910.306 1842.73 907.093 1841.86 L 906.413 1840.34 C 908.453 1831.8 933.174 1777.53 938.07 1769.12 z M 926.575 1815.98 L 942.75 1816.19 L 960.057 1815.96 C 955.864 1808.64 944.704 1782.4 942.645 1779.82 C 937.351 1791.9 931.995 1803.95 926.575 1815.98 z"/>
<path transform="translate(0,0)" fill="#a4be7b" d="M 752.313 1769.22 L 753.887 1769.23 C 757.664 1769.23 760.173 1768.68 763.294 1770.68 C 765.525 1774.02 772.014 1787.39 772.914 1790.75 C 775.145 1799.08 795.971 1838.84 795.404 1842.42 C 783.694 1846 780.973 1832.2 777.935 1824.18 L 762.368 1824.19 C 754.286 1824.15 746.205 1824.07 738.125 1823.95 C 735.287 1830.19 732.628 1836.72 729.963 1843.05 L 717.884 1843.04 C 731.205 1818.51 740.052 1793.17 752.313 1769.22 z M 741.418 1816.58 L 755.75 1816.37 L 774.046 1816.2 C 770.511 1809.56 759.85 1783.19 756.998 1780.48 C 751.731 1792.48 746.538 1804.51 741.418 1816.58 z"/>
<path transform="translate(0,0)" fill="#a4be7b" d="M 1746.52 1769.23 C 1754.15 1769.05 1756.57 1767.45 1759.88 1774.63 C 1769.99 1796.51 1779.94 1818.5 1789.59 1840.59 L 1788.73 1842.04 C 1776.57 1843.47 1776.3 1834.09 1772.7 1824.24 L 1756.93 1824.28 C 1748.63 1824.24 1740.33 1824.3 1732.03 1824.45 C 1729.08 1830.93 1727.25 1835.94 1724.89 1842.68 L 1713.19 1842.49 L 1746.52 1769.23 z M 1735.9 1815.97 L 1752.61 1816.06 L 1768.82 1815.94 C 1766.44 1810.66 1754.73 1783.99 1752.08 1780.56 C 1746.96 1792.64 1741.51 1804.11 1735.9 1815.97 z"/>
<path transform="translate(0,0)" fill="#a4be7b" d="M 1637.05 1769.2 C 1652.38 1768.17 1660.45 1770.77 1672.82 1779.21 L 1664.98 1786.41 C 1655.5 1779.02 1643.78 1775.2 1632.06 1779.77 C 1624.87 1782.59 1619.21 1788.34 1616.51 1795.58 C 1613.68 1803.13 1613.99 1811.51 1617.37 1818.83 C 1624.84 1834.92 1643.68 1838.54 1659.35 1831.36 C 1661.98 1830.16 1661.75 1827.63 1661.94 1825.25 C 1662.15 1818.12 1659.27 1810.78 1664.93 1806.4 C 1668.13 1805.93 1668.35 1805.31 1670.61 1806.55 C 1671.73 1812.63 1671.06 1827.58 1671.04 1834.44 C 1657.4 1845.15 1638.1 1847.84 1622.79 1838.97 C 1613.71 1833.67 1607.24 1824.84 1604.91 1814.59 C 1599.15 1789.41 1613.63 1774.18 1637.05 1769.2 z"/>
<path transform="translate(0,0)" fill="#a4be7b" d="M 582.223 1769.73 C 590.772 1769.94 630.174 1767.95 633.985 1772.37 C 632.109 1781.81 601.424 1778.08 592.397 1778.05 C 592.128 1785.75 592.546 1793.44 592.207 1801.34 C 599.749 1801.17 622.656 1801.11 629.142 1802.34 C 629.055 1805.53 629.575 1807.26 628.142 1809.56 C 621.685 1810.7 601.957 1809.99 593.91 1809.96 C 593.289 1810.1 592.826 1810.63 592.308 1811.01 C 591.682 1818.72 592.194 1826.76 592.5 1834.52 C 597.358 1834.29 633.52 1833.72 635.157 1834.83 C 635.589 1838 635.96 1839.03 635.013 1842.13 C 630.53 1843.48 589.61 1843.02 581.945 1843.03 C 582.355 1818.8 582.186 1793.99 582.223 1769.73 z"/>
<path transform="translate(0,0)" fill="#a4be7b" d="M 317.223 219.74 C 320.618 219.436 324.039 219.892 327.236 221.075 C 337.096 224.724 343.216 234.607 342.088 245.061 C 340.96 255.514 332.873 263.864 322.461 265.326 C 314.206 266.485 305.971 263.076 300.95 256.421 C 295.929 249.766 294.912 240.912 298.293 233.292 C 301.673 225.672 308.92 220.484 317.223 219.74 z M 322.727 257.978 C 340.094 247.787 334.566 226.365 315.911 226.861 C 299.686 237.052 303.075 259.294 322.727 257.978 z"/>
<path transform="translate(0,0)" fill="#a4be7b" d="M 1214.1 1769.37 C 1221.76 1768.93 1238.91 1769.01 1243.27 1775.91 C 1242.72 1778.84 1242.58 1778.67 1240.62 1781 C 1236.91 1782.11 1226.45 1776.04 1220.47 1776.72 C 1212.03 1777.67 1201.89 1781.22 1202.5 1791.5 C 1209.01 1803.27 1231.13 1800.8 1242.27 1810.44 C 1252.98 1819.72 1249.36 1833.09 1238.08 1840.17 C 1232.89 1843.42 1224.88 1843.91 1218.62 1844.09 C 1210.97 1843.55 1197.89 1842.23 1193.44 1835.32 C 1191.88 1832.89 1193.72 1828.99 1194.45 1826.38 C 1202.58 1831.26 1210.4 1835.75 1220.25 1835.33 C 1228.87 1834.96 1238.79 1832.42 1238.2 1821.96 C 1230.65 1808.17 1196.7 1813.55 1192.93 1794.06 C 1189.91 1778.45 1200.97 1771.68 1214.1 1769.37 z"/>
<path transform="translate(0,0)" fill="#a4be7b" d="M 348.599 1769.34 C 358.111 1768.45 369.397 1770.11 378.028 1774.3 C 379.182 1778.4 379.313 1776.51 378.22 1780.17 C 371.787 1783.53 364.169 1778.21 357.482 1777.57 C 348.742 1776.73 337.645 1779.83 337.111 1790.1 C 341.75 1804.48 381.368 1800.07 383.286 1820.4 C 384.89 1837.41 369.317 1842.07 356.264 1843.34 C 342.85 1843.54 337.088 1840.97 325.577 1835.07 C 326.867 1832.19 328.539 1829.39 330.085 1826.63 C 337.912 1831.3 345.056 1835.33 354.531 1835.36 C 362.198 1835.39 373.451 1831.44 372.782 1822.08 C 366.603 1808.51 330.043 1811.63 327.124 1793.55 C 324.812 1779.23 336.858 1771.56 348.599 1769.34 z"/>
<path transform="translate(0,0)" fill="#a4be7b" d="M 1368.66 220.907 C 1376.52 218.225 1385.21 220.009 1391.38 225.568 C 1397.54 231.127 1400.21 239.59 1398.36 247.682 C 1396.5 255.774 1390.41 262.226 1382.43 264.542 C 1370.5 268.01 1357.97 261.312 1354.23 249.455 C 1350.48 237.599 1356.89 224.923 1368.66 220.907 z M 1380.44 257.918 C 1396.78 246.75 1391.23 225.306 1371 228.11 C 1355.98 239.704 1360.61 259.736 1380.44 257.918 z"/>
<path transform="translate(0,0)" fill="#a4be7b" d="M 893.914 219.665 C 905.073 220.072 914.527 218.21 924.77 224.25 C 938.171 232.152 936.072 247.708 928.368 259.145 C 918.022 266.918 906.813 265.253 893.966 265.267 C 894.118 250.067 894.1 234.865 893.914 219.665 z M 902.899 258.543 C 909.814 258.236 913.741 258.37 920.06 255.16 C 931.422 240.576 923.688 228.452 906.022 227.807 L 902.816 227.66 C 902.447 238.794 902.513 247.439 902.899 258.543 z"/>
<path transform="translate(0,0)" fill="#a4be7b" d="M 1319.83 1769.54 L 1320.97 1769.41 C 1330.32 1768.44 1355.41 1769.12 1356.37 1781.2 C 1355.54 1782.17 1352.57 1784.75 1351.46 1784.2 C 1289.46 1753.44 1283.09 1848.64 1339.72 1833.51 C 1344.84 1831.51 1351.73 1823.82 1355.92 1829.61 C 1354.66 1846.7 1321.68 1846.03 1309.19 1839.17 C 1300.61 1834.46 1294.28 1826.51 1291.61 1817.09 C 1285.19 1794.45 1297.19 1774.96 1319.83 1769.54 z"/>
<path transform="translate(0,0)" fill="#a4be7b" d="M 414.082 220.047 C 426.194 219.664 453.939 215.601 448.673 235.624 C 445.777 238.491 443.544 239.45 444.636 243.425 C 452.12 250.022 453.061 250.911 449.371 260.54 C 441.05 267.881 425.847 265.429 413.795 265.837 C 414.434 251.514 414.055 234.568 414.082 220.047 z M 422.459 258.141 C 429.932 258.143 433.878 258.634 441.053 256.595 C 441.513 252.556 441.708 252.221 440.335 248.535 C 436.006 244.156 427.936 245.715 422.012 245.962 L 422.459 258.141 z M 422.221 239.251 C 428.814 239.188 434.551 239.733 440.534 236.908 C 440.312 233.217 440.587 232.112 438.218 229.277 C 433.843 226.719 427.56 227.347 422.21 227.282 L 422.221 239.251 z"/>
<path transform="translate(0,0)" fill="#a4be7b" d="M 232.509 1769.33 C 241.978 1770.12 280.426 1768.05 284.504 1770.6 C 284.946 1775.35 285.591 1773.42 283.382 1776.85 C 275.808 1780.58 251.74 1778.81 242.352 1778.27 L 242.292 1804.89 L 279.672 1804.49 C 280.737 1807.25 280.933 1809.57 279.841 1812.09 C 276.885 1813.02 248.212 1812.86 242.418 1813.1 C 241.744 1822.14 244.342 1835.38 240.401 1841.57 C 236.761 1843.2 238.697 1842.72 234.233 1842.38 C 231.314 1838.24 232.527 1780.12 232.509 1769.33 z"/>
<path transform="translate(0,0)" fill="#a4be7b" d="M 1012.61 1768.85 C 1016.82 1768.84 1018.06 1768.84 1022.17 1769.55 C 1028.09 1774.31 1042.42 1800.36 1047.25 1808.59 C 1050.69 1801.08 1065.83 1775.75 1071.2 1770.28 C 1074.56 1768.93 1075.97 1769.33 1079.55 1769.62 L 1079.94 1771.25 C 1077.95 1777.19 1071.39 1786.79 1067.82 1792.45 C 1062.94 1800.63 1057.14 1809.14 1051.9 1817.16 C 1051.87 1823.84 1052.3 1836.15 1050.84 1842.22 C 1047.14 1843.76 1048.97 1843.56 1045.15 1843.03 C 1039.25 1837.85 1042.97 1821.43 1040.61 1816.32 C 1033.28 1800.5 1020.18 1785.06 1012.61 1768.85 z"/>
<path transform="translate(0,0)" fill="#a4be7b" d="M 1271.99 220.11 C 1278.85 219.954 1295.63 218.559 1301.01 222.798 C 1312.99 232.226 1306.98 239.602 1299.84 248.986 C 1300.25 252.386 1306.29 260.801 1308.5 265.007 C 1306.99 266.251 1302.06 265.984 1299.57 266.09 C 1296.89 263.194 1292.49 254.093 1290.44 250.092 L 1280.77 250.06 C 1280.84 254.893 1280.99 259.119 1280.53 263.951 C 1277.87 266.631 1279.39 265.941 1276.12 266.636 L 1274.31 265.042 C 1270.37 255.376 1272.83 233.702 1272.08 221.422 L 1271.99 220.11 z M 1296.2 240.893 C 1302.94 226.86 1289.66 226.568 1280.14 226.964 C 1280.6 232.297 1280.85 237.645 1280.88 242.997 C 1287.24 242.975 1290.17 243.348 1296.2 240.893 z"/>
<path transform="translate(0,0)" fill="#a4be7b" d="M 1581.27 219.204 C 1581.72 219.27 1585.08 219.746 1585.54 220.022 C 1591.47 223.618 1598.85 240.534 1601.89 246.683 C 1605.5 239.835 1613.82 220.72 1620.96 219.184 L 1622.92 220.725 C 1625.66 227.08 1625.84 261.458 1624.55 265.253 C 1620.95 265.987 1621.1 265.954 1617.43 265.562 C 1615.98 261.23 1616.27 253.345 1616.18 248.478 L 1616.08 236.923 C 1612.06 242.535 1606.87 257.564 1600.15 256.447 C 1595.32 251.89 1590.88 242.226 1587.66 236.129 C 1587.97 243.742 1588.03 257.336 1587.09 264.562 C 1584.55 266.694 1585.94 266.225 1582.96 266.437 L 1580.88 264.601 C 1577.83 257.145 1577.91 227.553 1579.4 220.264 L 1581.27 219.204 z"/>
<path transform="translate(0,0)" fill="#a4be7b" d="M 509.861 1769.82 C 527.73 1770.32 552.378 1768.8 569.186 1770.4 C 570.698 1773.84 570.943 1775.47 568.528 1778.23 L 544.505 1778.85 L 544.512 1814.75 C 544.595 1819.89 545.871 1840.01 542.994 1842.6 C 538.863 1842.44 537.823 1843.18 535.304 1841.11 C 533.891 1833.21 534.723 1788.81 534.763 1778.23 C 526.045 1778.08 518.075 1780.22 510.631 1777.15 C 508.676 1774.09 509.435 1774.44 509.861 1769.82 z"/>
<path transform="translate(0,0)" fill="#a4be7b" d="M 348.341 218.796 C 359.631 220.986 371.973 241.08 379.512 250.236 C 379.774 241.448 377.699 227.918 380.962 221.41 C 384.061 219.286 382.333 219.866 386.46 220.086 C 389.151 225.296 387.953 257.255 387.936 265.627 C 386.012 265.878 384.492 265.704 382.551 265.623 C 375.813 262.155 362.59 244.019 357.047 237.113 C 357.109 245.222 359.033 259.387 354.718 264.743 C 352.158 265.789 352.271 265.979 349.607 265.499 C 346.786 258.005 348.184 228.523 348.341 218.796 z"/>
<path transform="translate(0,0)" fill="#a4be7b" d="M 669.146 250.091 C 669.172 241.961 666.362 224.968 672.141 219.675 C 675.904 218.717 674.345 218.363 677.295 219.528 C 678.844 228.442 677.854 255.695 677.696 266.343 C 670.911 265.996 669.274 264.098 664.843 259.047 C 658.574 251.899 652.405 243.686 646.985 235.927 L 646.955 265.615 L 638.47 265.694 C 638.242 250.028 638.194 234.36 638.327 218.693 C 639.217 218.77 643.176 219.034 643.837 219.691 C 653.216 229.017 660.021 240.294 669.146 250.091 z"/>
<path transform="translate(0,0)" fill="#a4be7b" d="M 1314.98 219.743 C 1322.72 220.373 1338.47 218.496 1343.94 223.002 C 1354.65 231.83 1350.84 248.058 1336.25 249.91 C 1331.61 250.363 1328.61 250.323 1323.93 250.228 C 1323.88 254.882 1325.18 260.378 1323.43 264.19 C 1320.12 266.208 1321.19 265.591 1316.87 265.766 C 1313.58 262.383 1315.05 227.557 1314.98 219.743 z M 1323.14 242.846 C 1329.82 242.931 1333.2 243.552 1339.37 241.188 C 1340.8 237.15 1341.39 236.415 1340.71 232.377 C 1336.69 226.411 1329.98 227.738 1323.21 227.745 L 1323.14 242.846 z"/>
<path transform="translate(0,0)" fill="#a4be7b" d="M 1460.06 1769.15 C 1463.87 1769.01 1466.53 1768.58 1469.5 1770.34 C 1470.89 1780.59 1469.98 1820.65 1470 1834.09 C 1476.97 1834.04 1484.09 1833.81 1491.04 1833.88 C 1496.72 1833.94 1517.75 1831.69 1509.74 1842.79 C 1499.31 1841.62 1470.91 1842.69 1459.3 1843.04 C 1459.97 1818.42 1460.22 1793.78 1460.06 1769.15 z"/>
<path transform="translate(0,0)" fill="#a4be7b" d="M 1705.01 249.992 C 1705.06 241.948 1702.19 224.496 1708.68 219.917 C 1712.3 220.148 1711.1 219.376 1713.25 221.224 C 1714.33 228.787 1713.46 258.431 1712.59 266.267 C 1701.78 263.72 1690.38 245.502 1683.25 236.113 C 1683.34 245.692 1683.27 255.271 1683.04 264.847 C 1680.59 266.357 1679.64 265.634 1676.09 265.408 C 1673.35 262.715 1674.24 225.925 1674.12 219.305 C 1675.76 219.499 1679.55 219.944 1680.62 220.906 C 1689.04 228.422 1697.63 241.419 1705.01 249.992 z"/>
<path transform="translate(0,0)" fill="#a4be7b" d="M 530.844 219.176 C 532.44 219.198 537.004 219.164 537.539 219.988 C 543.239 228.758 552.848 256.857 556.993 266.14 C 553.251 266.15 551.707 266.388 548.128 265.133 C 542.343 259.75 546.766 255.708 539.244 254.612 C 534.631 254.759 530.016 254.822 525.401 254.803 L 522.067 265.605 L 512.976 265.38 C 517.582 250.831 524.689 233.013 530.844 219.176 z M 537.242 248.194 L 540.066 247.586 C 540.372 243.872 536.93 233.148 534.332 230.636 C 532.383 235.389 528.335 242.546 529.073 246.678 C 531.719 248.901 532.746 248.074 537.242 248.194 z"/>
<path transform="translate(0,0)" fill="#a4be7b" d="M 952.376 218.954 C 955.576 218.969 956.376 219.032 959.533 219.545 C 963.304 225.255 977.848 259.795 975.694 265.978 C 967.438 268.97 968.047 258.343 964.011 254.514 C 958.671 254.715 953.329 254.845 947.985 254.905 C 946.283 259.479 945.976 262.339 942.424 265.007 C 939.232 265.176 938.508 265.823 936.465 264.389 C 937.574 254.787 948.289 229.381 952.376 218.954 z M 959.245 248.186 L 961.866 247.683 C 962.153 244.483 958.141 233.155 956.376 230.693 C 954.41 235.575 950.464 242.648 951.308 246.993 C 954.288 249.03 954.753 248.234 959.245 248.186 z"/>
<path transform="translate(0,0)" fill="#a4be7b" d="M 1634.99 219.852 C 1645.29 220.101 1655.82 218.984 1665.91 220.064 C 1667.46 222.135 1666.92 223.035 1667.08 226.188 C 1663.8 229.119 1648.65 228.01 1643.22 227.917 L 1643.07 239.474 C 1651.52 239.073 1656.82 237.873 1664.18 241.733 L 1664.49 243.153 C 1658.92 247.408 1650.04 246.124 1642.96 245.917 L 1643.55 258.282 C 1648.91 258.165 1663.32 257.245 1667.72 259.444 C 1667.52 262.498 1667.82 263.078 1665.84 265.369 C 1658.47 266.579 1643.95 265.324 1635.07 265.649 C 1635.32 250.384 1635.3 235.116 1634.99 219.852 z"/>
<path transform="translate(0,0)" fill="#a4be7b" d="M 1076.48 219.442 C 1077.46 219.46 1082.58 219.467 1083.09 220.18 C 1087.47 226.392 1079.64 256.392 1091.93 257.811 C 1117.54 260.769 1099.14 225.67 1109.77 219.353 C 1113.24 219.737 1113.27 219.158 1115.57 221.019 L 1115.58 224.568 C 1115.54 231.475 1115.65 238.706 1115.41 245.653 C 1114.73 266.383 1093.33 274.203 1080.42 257.696 C 1074.06 249.572 1074.79 229.341 1076.48 219.442 z"/>
<path transform="translate(0,0)" fill="#a4be7b" d="M 1232.6 219.184 C 1243.72 220.791 1254.72 218.555 1264.46 220.233 L 1265.06 221.88 C 1263.29 230.652 1248.83 227.241 1240.97 227.019 L 1241.02 239.014 C 1246.73 238.869 1258.67 237.383 1262.01 242.774 C 1257.52 247.28 1248.16 246.086 1242.15 245.943 C 1240.16 247.758 1240.98 255.304 1241.05 258.128 C 1247.59 258.022 1258.31 257.06 1264.02 258.912 C 1266.46 261.485 1265.81 259.988 1265.98 263.577 C 1262.37 266.502 1239.71 265.29 1233.11 265.476 C 1232.52 250.245 1232.66 234.469 1232.6 219.184 z"/>
<path transform="translate(0,0)" fill="#a4be7b" d="M 826.195 219.385 L 832.62 219.585 C 840.084 224.119 827.416 256.184 843.615 257.986 C 865.322 260.4 852.242 226.612 859.696 219.534 C 863.549 219.634 863.642 218.934 865.825 220.91 L 866.03 225.75 C 866.139 236.041 867.982 252.354 860.314 260.196 C 853.098 267.938 838.493 267.495 831.492 259.72 C 823.59 250.944 825.98 230.813 826.195 219.385 z"/>
<path transform="translate(0,0)" fill="#a4be7b" d="M 1792.81 219.527 L 1793.63 219.884 C 1795.28 222.57 1794.62 221.172 1794.73 224.771 L 1793.11 226.415 C 1787.56 227.917 1778.39 227.33 1772.22 227.329 L 1772.08 238.97 C 1777.5 238.843 1789.6 237.435 1792.32 242.904 C 1787.92 247.5 1778.14 246.128 1772.15 245.934 L 1772.55 258.052 L 1789.25 258.068 C 1791.71 258.08 1791.37 258.083 1793.76 258.53 C 1795.79 261.897 1795.51 260.209 1795.39 263.583 C 1791.8 267.105 1770.15 265.843 1764.03 265.902 C 1764.13 249.543 1764.03 235.925 1762.72 219.665 C 1772.75 219.672 1782.78 219.626 1792.81 219.527 z"/>
<path transform="translate(0,0)" fill="#a4be7b" d="M 727.688 219.398 C 734.497 219.874 755.217 218.202 758.908 220.924 C 758.524 225.283 759.432 223.658 756.919 226.358 C 752.183 228.126 742.335 227.261 736.531 227.23 L 736.102 239.026 C 742.858 238.869 751.15 237.414 755.773 241.505 C 756.033 244.429 756.51 243.237 754.773 245.32 C 750.782 246.373 741.392 245.983 736.381 246.312 L 736.737 258.16 C 741.036 258.075 756.647 257.202 759.753 259.324 C 759.674 263.718 760.513 262.173 758.404 264.847 C 749.081 266.422 737.465 264.82 727.353 265.846 C 728.526 252.403 727.847 233.373 727.688 219.398 z"/>
<path transform="translate(0,0)" fill="#a4be7b" d="M 629.879 219.586 L 630.983 220.496 C 631.094 223.22 631.6 224.308 630.549 226.418 C 624.869 227.586 614.42 227.203 608.205 227.183 L 607.987 238.947 C 615.662 238.754 621.427 237.687 627.874 241.62 L 628.142 243.179 C 623.238 247.351 614.483 246.148 608.096 245.922 L 609.035 258.124 L 628.25 258.12 L 630.681 258.347 C 632.123 261.516 631.859 259.882 631.341 263.449 C 627.341 267.186 606.898 265.645 599.974 265.528 C 600.104 250.297 600.027 235.065 599.744 219.837 C 609.236 220.103 620.275 219.703 629.879 219.586 z"/>
<path transform="translate(0,0)" fill="#a4be7b" d="M 1514.28 219.785 C 1516.74 219.682 1518.98 219.808 1521.43 219.91 C 1527.67 225.786 1513.3 265.196 1538.66 257.134 C 1548.98 253.854 1543.38 230.01 1546.15 220.568 C 1548.82 219.304 1549.24 219.893 1552.63 220.139 C 1554.5 222.12 1553.84 222.12 1553.93 225.75 C 1553.93 236.376 1555.9 252.03 1548.1 260.139 C 1541.02 267.903 1526.57 267.647 1519.6 259.928 C 1511.81 251.299 1514.15 231.063 1514.28 219.785 z"/>
<path transform="translate(0,0)" fill="#a4be7b" d="M 990.56 220.21 C 996.638 219.471 1008.8 218.729 1012.18 224.684 L 1011.06 228.645 C 1005.11 231.64 997.75 223.604 990.3 229.442 C 989.285 233.03 989.168 231.39 989.985 234.546 C 995.632 238.799 1004.94 239.392 1009 242.683 C 1023.14 254.127 1013.41 263.572 1000.26 265.874 C 994.377 265.81 979.84 265.008 979.335 257.494 L 980.941 255.709 C 989.618 253.925 998.391 262.64 1006.29 255.104 C 1004.57 247.138 959.692 239.099 990.56 220.21 z"/>
<path transform="translate(0,0)" fill="#a4be7b" d="M 1183.93 219.23 L 1192.66 219.599 C 1192.18 230.782 1187.62 262.629 1207.06 257.343 C 1222.44 253.159 1211.67 227.788 1216.07 219.951 C 1219.7 219.059 1219.43 219.033 1223.05 219.928 L 1223.89 221.927 C 1223.49 240.636 1229.14 254.129 1210.9 264.865 C 1209.76 264.973 1208.61 265.058 1207.46 265.121 C 1178.51 266.681 1183.66 239.705 1183.93 219.23 z"/>
<path transform="translate(0,0)" fill="#a4be7b" d="M 798.46 219.174 C 810.763 219.076 813.426 220.956 822.639 228.574 C 807.666 238.803 812.004 225.464 797.808 227.235 C 791.802 227.984 786.44 242.281 790.028 248.631 C 794.648 256.808 800.344 261.468 809.798 256.56 C 813.155 252.842 813.527 252.082 818.607 252.76 C 820.612 254.987 820.077 253.677 819.953 256.932 C 812.392 270.393 786.939 268.107 781.451 250.803 C 779.331 244.171 779.94 236.968 783.145 230.786 C 786.776 223.793 791.259 221.263 798.46 219.174 z"/>
<path transform="translate(0,0)" fill="#a4be7b" d="M 493.678 254.918 C 496.105 247.794 503.451 222.559 508.178 219.46 C 512.053 219.297 512.01 218.679 514.885 220.249 C 515.456 222.939 513.193 226.854 511.954 229.634 C 509.336 236.809 501.27 261.962 496.63 265.209 C 490.081 265.525 486.318 258.224 484.284 252.804 C 480.285 242.147 474.36 230.273 471.396 219.432 C 473.5 219.392 479.474 219.108 480.229 220.141 C 483.918 225.184 491.351 248.69 493.678 254.918 z"/>
<path transform="translate(0,0)" fill="#a4be7b" d="M 1151.59 220.435 C 1160.3 219.312 1171.34 218.049 1176.09 227.261 C 1176.14 230.968 1176.72 229.414 1174.49 232.155 C 1168.9 232.727 1153.98 222.634 1149.78 230.64 C 1142.49 244.544 1149.21 262.529 1166.8 256.689 C 1170.63 253.218 1171.39 251.965 1176.64 252.997 C 1179.56 259.06 1173.05 262.071 1168.7 264.827 C 1150.21 266.14 1135.03 259.283 1138.33 236.011 C 1139.27 229.41 1145.98 223.778 1151.59 220.435 z"/>
<path transform="translate(0,0)" fill="#a4be7b" d="M 270.156 219.259 C 277.386 218.837 292.013 220.923 291.092 230.914 C 286.292 232.292 272.853 224.972 267.801 229 C 253.569 240.345 263.485 267.381 284.566 253.983 C 286.748 252.675 287.789 253.028 290.583 252.887 C 293.301 254.41 292.646 253.341 293.463 255.637 C 288.898 269.192 262.463 269.863 255.309 252.131 C 252.693 245.617 252.798 238.325 255.601 231.889 C 258.862 224.395 262.996 222.062 270.156 219.259 z"/>
<path transform="translate(0,0)" fill="#a4be7b" d="M 1263.67 1769.04 C 1267.85 1768.99 1269.59 1768.67 1273.43 1770.04 C 1274.47 1776.69 1273.99 1789.57 1273.98 1796.74 L 1273.98 1842.69 C 1270.73 1842.74 1266.76 1843.26 1264.19 1841.64 C 1263.35 1834.59 1263.74 1821.82 1263.75 1814.34 C 1263.83 1799.24 1263.8 1784.14 1263.67 1769.04 z"/>
<path transform="translate(0,0)" fill="#a4be7b" d="M 882.576 1769.1 C 885.885 1769.09 889.648 1768.62 892.308 1770.3 C 893.178 1775.44 892.605 1788.46 892.567 1794.34 C 892.361 1810.49 892.44 1826.65 892.804 1842.8 C 889.143 1842.91 887.573 1842.84 883.91 1842.53 C 881.153 1839.37 882.361 1778.41 882.576 1769.1 z"/>
<path transform="translate(0,0)" fill="#a4be7b" d="M 399.73 1769.54 L 408.901 1769.28 L 409.154 1815.74 C 409.177 1821.8 409.527 1836.91 408.559 1842.36 L 398.512 1842.63 C 398.835 1832.53 397.603 1773.91 399.73 1769.54 z"/>
<path transform="translate(0,0)" fill="#a4be7b" d="M 300.349 1769.45 L 309.963 1769.44 C 309.841 1783.72 311.123 1831.43 309.383 1842.58 C 306.629 1842.31 302.56 1842.58 299.665 1842.68 C 300.057 1830.62 298.692 1776.14 300.349 1769.45 z"/>
<path transform="translate(0,0)" fill="#a4be7b" d="M 1690.9 1769.57 C 1693.66 1769.38 1699.18 1768.57 1700.9 1770.76 C 1701.63 1778.45 1701.66 1835.38 1700.72 1843.05 C 1697.04 1843.1 1695.86 1843.29 1692.25 1842.27 C 1689.7 1833.4 1692.34 1785.45 1691.06 1771.25 L 1690.9 1769.57 z"/>
<path transform="translate(0,0)" fill="#a4be7b" d="M 691.702 219.504 C 698.364 219.576 718.689 217.553 722.46 220.525 C 722.682 224.541 723.37 224.565 721.661 227.327 C 717.878 228.749 712.126 228.028 707.88 227.83 L 707.78 259.25 C 707.68 261.536 707.52 262.667 707.239 264.934 L 705.068 266.425 C 701.847 266.696 703.263 267.094 700.663 265.242 C 697.415 257.736 698.776 237.836 698.441 227.985 L 695.467 227.962 C 689.68 227.971 686.419 228.556 682.742 223.459 L 683.561 221.43 C 686.349 219.325 688.175 219.65 691.702 219.504 z"/>
<path transform="translate(0,0)" fill="#a4be7b" d="M 1416.34 219.347 C 1417.26 219.39 1420.98 219.622 1421.57 219.801 C 1426.65 221.367 1433.12 237.164 1435.57 242.079 C 1438.52 236.001 1446.07 217.717 1453.64 219.626 C 1454.53 226.323 1449.09 233.633 1445.62 239.607 C 1437.75 254.405 1442.24 260.009 1439.12 265.775 C 1436.06 265.934 1435 266.237 1432.19 264.938 C 1429.97 256.52 1432.19 254.753 1428.15 244.473 C 1424.84 236.067 1417.67 227.878 1415.3 221.083 L 1416.34 219.347 z"/>
<path transform="translate(0,0)" fill="#a4be7b" d="M 1749.68 219.514 C 1754.25 219.302 1755.92 218.66 1758.99 222.272 L 1758.1 224.437 C 1752.2 228.555 1750.31 227.593 1743 227.148 C 1743.03 234.638 1744.25 261.9 1741.23 265.848 L 1735.34 265.597 L 1734.74 263.244 C 1734.13 252.961 1734.57 237.87 1734.58 227.22 C 1730.43 227.264 1722.36 227.952 1719.25 225.902 C 1718.88 222.872 1718.72 223 1719.74 220.173 C 1725.63 218.804 1742.53 219.46 1749.68 219.514 z"/>
<path transform="translate(0,0)" fill="#a4be7b" d="M 1470.63 219.244 C 1478.24 220.093 1505.42 217.73 1508.78 221.352 C 1508.74 225.75 1509.45 223.996 1507.51 227.177 C 1504.07 228.778 1498.26 227.858 1494.21 227.589 L 1494.1 253.5 C 1494.24 257.309 1494.64 260.232 1493.61 263.898 C 1490.5 266.268 1490.37 265.462 1485.58 265.721 C 1486.1 253.139 1485.88 240.047 1485.86 227.422 C 1480.37 227.099 1476.11 228.399 1471.86 226.696 C 1469.76 223.368 1470.49 223.994 1470.63 219.244 z"/>
<path transform="translate(0,0)" fill="#a4be7b" d="M 1042.19 219.682 C 1047.72 219.642 1065 218.999 1069.73 219.771 C 1071.21 221.919 1070.76 223.015 1070.59 225.707 C 1067.51 228.001 1059.69 227.328 1055.54 227.273 C 1055.54 233.665 1057.02 261.213 1054.3 264.89 C 1050.23 265.051 1051.93 265.662 1048.92 263.301 C 1045.59 255.57 1047.28 237.068 1047.13 227.448 C 1041.45 227.835 1034.49 229.34 1032.21 222.817 L 1033.3 221.15 C 1036.25 219.144 1038.55 219.632 1042.19 219.682 z"/>
<path transform="translate(0,0)" fill="#a4be7b" d="M 1047.13 227.448 C 1041.45 227.835 1034.49 229.34 1032.21 222.817 L 1033.3 221.15 C 1036.25 219.144 1038.55 219.632 1042.19 219.682 L 1040.79 224.623 C 1043.48 227.235 1043.53 224.728 1047.13 227.448 z"/>
<path transform="translate(0,0)" fill=  "#a4be7b" d="M 561.914 219.211 C 564.845 219.181 567.273 218.754 569.655 220.261 C 570.83 228.671 570.074 248.559 570.427 258.647 C 577.191 258.243 590.031 255.819 594.925 260.398 L 595.014 266.046 C 583.411 265.723 572.363 265.857 560.766 266.015 C 561.964 254.492 560.023 228.32 561.914 219.211 z"/>
<path transform="translate(0,0)" fill="#a4be7b" d="M 457.995 219.143 C 461.345 219.044 463.216 218.695 466.311 220.01 C 467.716 224.471 466.919 258.207 466.844 265.616 C 463.161 265.471 462.257 265.529 458.601 264.49 C 457.282 260.144 457.956 225.332 457.995 219.143 z"/>
<path transform="translate(0,0)" fill="#a4be7b" d="M 875.856 219.518 C 879.61 219.604 880.654 219.461 884.303 220.672 C 885.332 226.712 884.817 257.324 884.813 265.689 L 875.84 265.61 C 876.061 250.247 876.066 234.881 875.856 219.518 z"/>
<path transform="translate(0,0)" fill="#a4be7b" d="M 1703.08 1748.27 C 1708.04 1748.66 1712.07 1748.24 1717.01 1747.9 C 1710.58 1752.95 1705.3 1757.2 1698.39 1761.52 C 1694.91 1762.8 1690.23 1763.98 1686.58 1765.01 C 1690.61 1760.46 1698.5 1751.37 1703.08 1748.27 z"/>
</svg>