<?xml version="1.0" standalone="no"?>
<!DOCTYPE svg PUBLIC "-//W3C//DTD SVG 20010904//EN"
 "http://www.w3.org/TR/2001/REC-SVG-20010904/DTD/svg10.dtd">
<svg version="1.0" xmlns="http://www.w3.org/2000/svg"
 width="952.000000pt" height="545.000000pt" viewBox="0 0 952.000000 545.000000"
 preserveAspectRatio="xMidYMid meet">
<metadata>
Created by potrace 1.16, written by Peter Selinger 2001-2019
</metadata>
<g transform="translate(0.000000,545.000000) scale(0.100000,-0.100000)"
fill="#000000" stroke="none">
<path d="M0 2725 l0 -2725 4760 0 4760 0 0 2725 0 2725 -4760 0 -4760 0 0
-2725z m5757 2505 c17 -19 17 -19 35 0 39 42 108 13 108 -45 0 -18 -7 -41 -16
-49 -24 -24 -80 -20 -98 6 -9 12 -16 31 -16 41 0 17 -1 17 -16 3 -8 -9 -26
-16 -40 -16 -17 0 -24 -6 -24 -19 0 -11 6 -22 13 -24 6 -3 1 -6 -13 -6 -24 -1
-25 1 -25 64 l0 65 38 0 c25 0 43 -7 54 -20z m-597 -250 c566 -48 1064 -235
1413 -529 90 -77 101 -101 63 -139 -23 -23 -35 -27 -84 -27 -54 0 -63 4 -162
69 -145 96 -297 184 -485 282 -223 116 -317 148 -520 181 -173 27 -702 29
-746 3 -12 -8 -12 -11 1 -25 14 -13 34 -13 155 -4 320 25 734 -24 896 -106 98
-50 121 -94 74 -140 -35 -36 -103 -33 -379 15 -303 52 -448 64 -741 57 -644
-14 -1008 -129 -1450 -457 -86 -63 -118 -92 -267 -238 l-118 -115 -57 7 c-132
15 -201 109 -135 182 9 10 36 44 59 75 49 63 207 221 303 301 91 76 257 186
388 256 361 194 794 315 1267 355 93 8 419 6 525 -3z m-635 -518 c33 -11 72
-25 86 -32 22 -10 38 -7 115 20 74 27 108 33 199 37 187 9 302 -30 407 -138
33 -34 85 -74 117 -90 109 -55 171 -136 171 -223 0 -36 6 -47 39 -79 63 -60
99 -122 107 -185 6 -52 12 -62 66 -119 105 -110 135 -229 85 -337 l-23 -49 26
-51 c20 -40 25 -66 25 -122 0 -61 -4 -77 -30 -120 -18 -28 -53 -65 -85 -87
-57 -39 -60 -44 -80 -116 -25 -94 -150 -186 -290 -213 -56 -11 -73 -19 -124
-65 -105 -94 -218 -133 -381 -133 -108 0 -169 13 -262 57 l-53 26 -58 -26
c-88 -39 -172 -57 -268 -57 -159 0 -283 46 -388 141 -43 38 -63 48 -126 63
-177 42 -275 127 -296 253 -5 31 -13 43 -38 57 -134 73 -178 197 -121 340 l25
63 -21 48 c-17 38 -20 62 -17 114 6 86 34 144 108 220 48 48 60 67 65 103 10
67 39 123 96 183 44 47 52 61 56 101 2 26 11 62 19 81 22 44 88 102 158 136
31 15 78 51 108 83 60 64 114 98 196 125 78 25 298 20 387 -9z m2150 -1253
c53 -15 105 -68 105 -108 0 -18 -18 -61 -44 -105 -178 -301 -510 -597 -872
-779 -327 -164 -653 -258 -1104 -318 -136 -19 -551 -16 -719 5 -459 56 -867
203 -1169 424 -62 45 -73 57 -70 79 4 33 44 63 94 70 34 4 60 -6 214 -84 261
-133 586 -274 715 -310 242 -67 604 -77 935 -27 114 17 140 28 118 51 -11 10
-25 11 -67 3 -188 -36 -543 -50 -728 -29 -104 11 -267 50 -314 74 -69 36 -88
89 -44 123 41 33 89 34 315 10 170 -18 270 -23 480 -22 325 1 504 21 815 94
274 64 496 169 715 338 114 88 321 297 399 402 35 47 72 93 83 103 23 20 83
22 143 6z m-1760 -1669 c4 -6 -61 -166 -144 -355 -83 -190 -151 -352 -151
-360 0 -9 7 -18 15 -21 14 -6 46 13 118 68 36 29 55 12 24 -23 -60 -67 -171
-129 -233 -129 -47 0 -64 17 -64 63 0 44 14 82 150 407 97 232 109 268 89 281
-8 5 -26 9 -41 9 -15 0 -29 4 -33 9 -10 17 31 31 87 31 29 0 76 7 103 14 63
18 72 18 80 6z m-2590 -90 c114 -23 182 -73 187 -137 5 -81 -30 -132 -104
-155 -44 -13 -41 -18 26 -43 98 -36 143 -101 134 -196 -7 -68 -45 -114 -127
-153 -64 -30 -70 -31 -196 -30 -304 2 -448 9 -453 22 -2 6 5 12 15 13 33 1 54
7 69 20 12 10 14 59 12 318 l-3 306 -57 3 c-55 3 -71 13 -47 28 39 24 431 27
544 4z m4398 -72 c2 -7 -4 -35 -14 -61 -11 -26 -19 -52 -19 -57 0 -6 30 -10
66 -10 57 0 65 -2 62 -17 -3 -15 -17 -19 -76 -23 l-73 -5 -65 -155 c-36 -85
-68 -174 -71 -197 -5 -39 -4 -43 15 -43 12 0 50 22 85 49 44 33 69 46 78 40
21 -13 -87 -110 -163 -148 -75 -38 -116 -40 -147 -7 -32 34 -24 72 55 276 35
91 64 171 64 178 0 7 -16 12 -43 12 -50 0 -62 7 -46 27 7 7 32 13 61 13 l49 0
29 64 c16 35 35 66 42 69 27 11 106 7 111 -5z m-2269 -106 c3 -5 -6 -35 -20
-68 -14 -32 -27 -66 -30 -74 -3 -9 -31 -78 -63 -155 -32 -77 -56 -145 -54
-152 10 -25 43 -12 92 37 49 49 71 61 71 39 0 -40 -132 -152 -202 -170 -102
-28 -126 10 -85 136 15 45 27 85 27 89 0 5 -42 -32 -93 -80 -157 -150 -294
-194 -370 -118 -35 34 -42 83 -22 151 61 208 367 400 565 354 35 -8 49 -7 65
4 22 15 111 20 119 7z m-1564 -247 l5 -240 30 -9 c17 -5 36 -10 43 -12 20 -6
14 -22 -10 -26 -46 -6 -288 7 -289 16 0 5 15 14 33 20 l33 11 3 176 2 176 -30
13 c-17 7 -29 18 -27 24 2 5 30 21 63 34 32 13 70 32 84 43 53 40 55 35 60
-226z m433 236 c48 -18 42 -47 -43 -244 -44 -102 -80 -191 -80 -199 0 -42 76
-51 148 -18 64 29 177 146 207 214 30 68 30 76 5 126 -11 22 -20 49 -20 61 0
54 70 79 110 39 73 -73 -64 -326 -245 -450 -50 -34 -153 -70 -200 -70 -43 0
-103 24 -121 48 -18 23 -17 100 1 152 8 23 38 87 65 141 56 111 63 144 28 134
-13 -4 -44 -28 -70 -53 -38 -36 -51 -43 -60 -34 -19 19 55 89 137 128 73 36
98 40 138 25z m2093 -10 c52 -24 74 -55 74 -104 0 -53 -53 -106 -135 -136 -61
-23 -236 -61 -280 -61 -22 0 -25 -4 -25 -35 0 -79 51 -121 142 -119 50 2 142
45 162 76 13 22 36 24 36 3 0 -19 -52 -70 -109 -106 -121 -78 -294 -55 -361
46 -86 131 45 354 253 431 80 30 184 32 243 5z m402 3 c27 -19 28 -51 2 -124
-11 -30 -19 -61 -20 -67 0 -7 33 20 73 61 96 98 176 140 268 141 113 0 136
-49 80 -169 -91 -194 -111 -241 -111 -262 0 -47 58 -23 123 51 28 31 38 37 48
28 28 -27 -111 -153 -197 -179 -56 -17 -109 -5 -117 26 -8 30 9 91 54 192 106
241 108 254 48 252 -44 -1 -104 -40 -177 -116 -73 -75 -116 -138 -168 -243
-25 -49 -50 -93 -57 -97 -21 -13 -117 -9 -123 5 -2 7 21 76 52 153 90 221 106
266 96 276 -13 13 -59 -12 -96 -51 -31 -33 -56 -40 -56 -17 0 27 119 117 187
142 50 17 64 17 91 -2z m1537 -3 c51 -23 66 -41 71 -88 6 -50 -21 -93 -79
-128 -50 -28 -198 -69 -294 -80 -64 -7 -67 -10 -63 -55 10 -121 179 -142 293
-36 15 14 32 26 38 26 42 0 -63 -109 -139 -143 -68 -31 -191 -30 -249 1 -58
31 -95 89 -101 158 -4 47 0 64 29 120 52 103 160 194 274 230 61 19 173 17
220 -5z m-4531 -765 c40 -16 76 -60 76 -92 0 -37 -44 -80 -95 -93 -88 -22
-175 23 -175 91 0 84 101 133 194 94z m664 3 c19 -6 35 -22 43 -41 12 -30 11
-33 -21 -59 l-34 -29 28 -29 c17 -18 24 -31 17 -35 -6 -4 -28 12 -49 34 -48
53 -84 53 -92 2 -3 -18 -9 -34 -15 -35 -6 -1 -11 39 -13 101 l-3 102 54 0 c30
0 68 -5 85 -11z m266 -86 c53 -95 65 -144 22 -90 -20 25 -28 27 -94 27 -61 0
-73 -3 -82 -20 -6 -11 -17 -20 -26 -20 -12 0 -12 4 2 33 45 88 96 167 109 167
8 0 38 -44 69 -97z m257 74 c25 -18 33 -30 31 -48 -4 -39 -28 -54 -95 -59 -60
-5 -62 -6 -62 -32 -1 -16 -6 -33 -13 -40 -14 -14 -13 -15 -13 62 0 28 0 70 0
95 l1 45 59 0 c44 0 66 -5 92 -23z m307 -4 c71 -101 126 -237 64 -158 -18 22
-27 25 -91 25 -65 0 -72 -2 -87 -26 -22 -33 -42 -16 -21 17 8 13 33 57 56 97
23 39 46 72 51 72 5 0 17 -12 28 -27z m742 10 c48 -32 51 -53 15 -88 -20 -21
-34 -25 -80 -25 -57 0 -61 -3 -56 -52 1 -10 -4 -18 -13 -18 -13 0 -16 15 -16
93 0 52 3 97 7 100 14 14 119 7 143 -10z m869 -1 c74 -37 88 -96 37 -147 -75
-75 -240 -35 -240 58 0 84 115 134 203 89z m493 6 c132 -39 87 -192 -57 -192
-137 0 -185 129 -70 188 36 19 74 20 127 4z m343 -15 c13 -10 25 -21 25 -25 0
-14 -21 -8 -47 12 -35 27 -91 26 -134 -3 -94 -63 5 -179 114 -134 19 9 40 25
47 36 10 19 8 21 -24 21 -19 0 -38 5 -41 10 -4 6 15 10 49 10 65 0 71 -11 30
-59 -74 -89 -244 -44 -244 64 0 27 50 81 83 88 40 9 117 -2 142 -20z m373 -72
c34 -59 50 -97 44 -103 -6 -6 -15 0 -26 16 -15 24 -22 26 -91 26 -41 0 -75 -4
-75 -9 0 -15 -31 -42 -40 -36 -9 5 70 154 98 188 9 10 20 16 26 14 6 -2 35
-45 64 -96z"/>
<path d="M4199 4376 c-84 -23 -172 -89 -190 -144 -2 -7 -30 -24 -62 -37 -74
-30 -121 -62 -141 -96 -18 -31 -21 -81 -6 -109 7 -14 5 -21 -13 -33 -42 -28
-114 -105 -131 -142 -14 -28 -17 -51 -13 -86 6 -48 6 -49 -37 -78 -147 -101
-188 -250 -96 -349 24 -25 24 -27 7 -44 -30 -31 -59 -96 -64 -145 -8 -73 25
-120 115 -166 l67 -33 -4 -42 c-8 -115 96 -201 265 -218 59 -6 66 -9 85 -40
26 -43 105 -101 172 -126 141 -54 349 -19 449 76 35 33 47 33 82 -4 62 -66
180 -105 300 -98 120 7 187 37 263 115 61 61 65 63 132 73 168 24 251 92 251
207 l0 52 65 31 c106 51 143 122 112 214 -9 25 -27 61 -42 79 l-25 34 35 53
c42 62 46 117 14 184 -19 41 -112 140 -151 162 -15 8 -16 15 -6 46 9 30 8 45
-5 80 -17 43 -77 115 -129 154 -25 19 -26 23 -15 62 9 34 8 48 -5 75 -18 38
-92 91 -150 109 -28 8 -48 25 -72 59 -64 88 -135 125 -261 135 -91 8 -197 -15
-286 -60 l-69 -35 -69 35 c-115 58 -266 79 -372 50z m287 -51 c37 -14 83 -37
101 -51 l34 -26 -2 -189 c-1 -107 -5 -189 -10 -189 -6 0 -20 7 -33 15 -53 35
-266 61 -266 32 0 -9 30 -16 93 -24 102 -12 162 -36 196 -79 20 -25 21 -39 21
-225 l0 -199 -25 -16 c-38 -25 -167 -15 -222 16 -26 14 -48 20 -60 16 -17 -7
-16 -9 6 -27 13 -10 55 -29 93 -40 65 -20 113 -22 191 -6 9 1 12 -31 12 -127
l0 -129 -75 -19 c-41 -10 -107 -18 -147 -19 -122 0 -186 48 -201 152 -6 45
-11 55 -30 57 -19 3 -22 -1 -22 -31 0 -81 45 -152 117 -188 40 -19 64 -23 138
-23 54 0 112 7 147 17 31 9 61 17 67 17 8 0 11 -59 11 -190 0 -232 -2 -237
-108 -304 -35 -22 -64 -32 -143 -50 l-26 -6 0 73 c1 85 -24 147 -85 210 -31
33 -40 38 -53 27 -13 -11 -10 -18 25 -57 48 -55 74 -129 67 -190 -2 -25 -9
-49 -14 -54 -15 -15 -124 19 -179 56 -28 20 -65 55 -82 79 -30 42 -33 43 -100
49 -162 16 -242 74 -242 179 l0 47 73 34 c96 45 163 120 120 134 -6 2 -28 -15
-50 -38 -37 -41 -121 -89 -155 -89 -36 0 -125 48 -148 79 -34 48 -25 122 21
187 49 68 80 77 262 78 101 1 147 4 147 12 0 26 -212 33 -318 10 -63 -14 -63
-14 -87 12 -13 14 -28 45 -34 69 -10 37 -9 50 8 87 24 56 80 118 142 158 27
17 49 32 49 33 0 2 -7 18 -15 37 -21 51 -3 101 62 166 28 28 58 52 65 52 8 0
51 -40 97 -89 45 -49 114 -112 152 -140 60 -45 69 -56 69 -83 0 -23 -10 -41
-40 -69 -22 -21 -40 -41 -40 -44 0 -3 11 -5 24 -5 34 0 82 44 96 86 12 35 12
35 54 27 49 -9 113 -10 122 -1 14 15 -10 28 -54 28 -108 0 -269 118 -424 310
-50 62 -56 92 -27 136 27 39 129 94 175 94 41 -1 105 -32 152 -75 40 -35 62
-39 62 -10 0 22 -71 74 -132 97 -32 11 -58 24 -58 27 0 4 14 23 31 44 33 40
86 71 146 87 62 15 182 4 259 -25z m565 21 c73 -17 136 -61 170 -119 8 -13 6
-19 -8 -23 -79 -25 -183 -90 -183 -115 0 -24 33 -19 65 10 42 36 97 66 142 75
40 9 151 -40 182 -81 45 -56 23 -107 -105 -243 -124 -132 -247 -209 -340 -215
-61 -3 -76 -11 -54 -26 14 -10 84 -6 143 7 24 6 27 3 27 -18 0 -31 32 -73 71
-94 47 -24 55 -6 15 35 -23 24 -39 51 -42 73 -6 35 -4 37 57 79 35 24 108 88
162 143 l97 99 38 -30 c20 -16 52 -52 70 -79 34 -49 36 -61 17 -135 -6 -21 -1
-29 32 -51 126 -84 183 -200 139 -285 -27 -54 -35 -56 -137 -39 -138 24 -284
17 -284 -14 0 -12 19 -14 116 -11 135 3 232 -12 261 -43 11 -12 32 -45 45 -74
46 -99 14 -172 -95 -212 l-54 -20 -59 26 c-33 15 -75 44 -94 65 -19 22 -41 39
-49 39 -72 0 55 -117 165 -153 32 -10 32 -86 0 -145 -25 -46 -140 -92 -233
-92 -43 0 -78 -18 -78 -39 0 -15 -70 -80 -112 -104 -46 -27 -154 -55 -165 -43
-4 4 -7 38 -7 75 0 72 22 124 78 184 31 33 33 47 7 47 -24 0 -87 -70 -112
-124 -13 -28 -19 -64 -19 -113 l0 -72 -32 6 c-61 11 -136 51 -177 93 l-41 42
-1 147 c0 80 -2 170 -3 199 l-3 54 31 -5 c209 -36 272 -32 347 17 44 30 82
103 83 160 1 35 -2 41 -19 41 -16 0 -21 -8 -25 -40 -9 -65 -42 -117 -91 -145
-36 -20 -57 -25 -114 -24 -76 1 -195 28 -207 47 -4 6 -6 66 -5 132 2 114 3
120 22 116 11 -2 56 -4 100 -4 67 -1 90 3 138 25 33 16 57 33 57 42 0 22 -17
20 -75 -9 -39 -19 -66 -24 -120 -25 -119 0 -115 -7 -118 215 -2 180 -1 192 20
227 33 56 96 82 227 92 73 6 82 9 71 25 -15 25 -185 3 -260 -34 -27 -13 -50
-23 -51 -22 -5 7 -10 387 -5 396 10 16 123 69 172 80 94 22 140 24 210 7z"/>
<path d="M2059 1413 c-10 -11 -14 -49 -14 -137 l0 -121 79 -3 c148 -5 226 43
226 140 0 43 -4 54 -33 83 -40 40 -89 55 -178 55 -50 0 -70 -4 -80 -17z"/>
<path d="M2048 1104 c-5 -4 -8 -67 -8 -140 0 -126 1 -134 24 -161 23 -27 28
-28 115 -28 76 0 97 4 133 24 61 33 81 64 86 132 4 47 0 65 -18 94 -36 58 -87
78 -215 83 -60 2 -113 1 -117 -4z"/>
<path d="M4165 1231 c-56 -14 -112 -50 -170 -107 -117 -116 -176 -252 -129
-298 40 -41 124 -4 232 102 170 167 223 254 178 291 -19 16 -74 22 -111 12z"/>
<path d="M5230 1229 c-43 -17 -111 -91 -141 -154 -16 -33 -29 -66 -29 -72 0
-26 126 -6 197 30 49 26 93 85 93 127 0 41 -7 53 -37 69 -26 13 -49 13 -83 0z"/>
<path d="M7160 1222 c-52 -25 -102 -80 -133 -145 -40 -85 -38 -91 26 -84 107
12 173 45 214 106 30 44 29 85 -2 116 -28 29 -57 31 -105 7z"/>
<path d="M2715 471 c-25 -11 -51 -40 -59 -67 -9 -31 35 -80 78 -88 46 -9 107
13 125 45 39 71 -58 145 -144 110z"/>
<path d="M5793 461 c-58 -36 -53 -103 12 -134 50 -24 104 -15 137 22 43 48 33
92 -27 117 -47 19 -84 18 -122 -5z"/>
<path d="M6300 458 c-63 -42 -47 -116 29 -139 48 -14 85 -6 117 26 78 78 -51
178 -146 113z"/>
</g>
</svg>
