<?xml version="1.0" standalone="no"?>
<!DOCTYPE svg PUBLIC "-//W3C//DTD SVG 20010904//EN"
 "http://www.w3.org/TR/2001/REC-SVG-20010904/DTD/svg10.dtd">
<svg version="1.0" xmlns="http://www.w3.org/2000/svg"
 width="952.000000pt" height="450.000000pt" viewBox="0 0 952.000000 450.000000"
 preserveAspectRatio="xMidYMid meet">
<metadata>
Created by potrace 1.16, written by Peter Selinger 2001-2019
</metadata>
<g transform="translate(0.000000,450.000000) scale(0.100000,-0.100000)"
fill="#000000" stroke="none">
<path d="M0 2250 l0 -2250 4760 0 4760 0 0 2250 0 2250 -4760 0 -4760 0 0
-2250z m5160 2130 c554 -47 1054 -231 1395 -513 118 -98 128 -123 65 -165 -57
-39 -105 -28 -225 50 -245 160 -608 355 -747 402 -178 60 -384 86 -683 85
-191 0 -318 -9 -332 -22 -4 -4 0 -14 8 -22 12 -12 39 -12 169 -3 172 12 451
-1 599 -27 293 -51 449 -150 355 -224 -39 -31 -112 -27 -378 19 -303 53 -448
64 -741 57 -652 -15 -1026 -135 -1475 -475 -63 -47 -107 -88 -242 -220 l-118
-115 -51 6 c-60 7 -129 38 -146 65 -6 11 -14 35 -18 53 -5 27 -1 39 17 59 13
14 42 50 65 80 49 65 220 235 310 309 84 69 267 188 392 255 109 58 343 159
421 182 25 7 83 25 130 39 181 55 446 105 660 124 136 12 436 12 570 1z m-667
-510 c42 -11 92 -27 110 -36 32 -15 37 -15 123 16 75 28 107 33 204 38 188 7
298 -31 405 -142 36 -37 82 -73 115 -89 66 -32 135 -95 155 -144 8 -19 15 -55
15 -78 0 -35 5 -48 28 -67 68 -58 122 -158 122 -225 0 -19 18 -45 60 -89 82
-85 113 -156 108 -244 -2 -39 -11 -80 -24 -104 l-20 -39 24 -50 c13 -27 27
-76 29 -108 5 -49 2 -67 -20 -112 -25 -51 -80 -107 -128 -131 -16 -7 -28 -30
-40 -69 -17 -56 -48 -107 -92 -148 -35 -32 -136 -76 -207 -89 -52 -10 -73 -20
-105 -50 -115 -107 -199 -140 -371 -148 -131 -5 -185 5 -290 55 l-54 26 -58
-26 c-88 -39 -172 -57 -268 -57 -159 0 -283 46 -388 141 -43 38 -63 48 -126
63 -97 23 -173 59 -217 104 -40 40 -83 124 -83 164 0 21 -8 31 -33 43 -47 22
-102 77 -127 124 -28 57 -27 136 5 215 l25 63 -21 48 c-17 38 -20 62 -17 114
6 86 34 144 108 219 47 48 59 68 65 103 11 70 40 125 96 184 44 47 52 62 55
101 8 90 71 166 182 221 30 14 77 51 105 81 99 104 193 141 363 141 80 1 131
-5 187 -19z m2182 -1261 c51 -14 105 -70 105 -109 0 -30 -46 -117 -109 -205
-314 -440 -823 -760 -1452 -914 -132 -32 -300 -62 -464 -82 -142 -18 -547 -15
-714 5 -457 55 -867 204 -1169 424 -62 45 -73 57 -70 79 4 32 42 62 90 69 32
6 63 -7 260 -104 339 -168 579 -266 744 -306 212 -50 565 -54 859 -11 119 18
145 29 123 52 -11 10 -25 11 -67 3 -106 -20 -357 -40 -500 -40 -289 1 -539 55
-598 130 -33 41 4 93 76 105 21 3 132 -4 247 -16 269 -30 678 -32 879 -6 641
85 976 236 1345 606 74 75 162 172 194 216 33 44 68 88 79 98 22 20 82 22 142
6z m-1759 -1672 c2 -7 -43 -121 -101 -252 -58 -132 -127 -288 -152 -347 -63
-149 -50 -173 53 -93 60 47 69 51 78 36 7 -11 -41 -61 -98 -100 -79 -54 -175
-78 -204 -49 -26 26 -13 96 43 231 110 262 195 476 195 490 0 17 -21 27 -55
27 -13 0 -26 4 -30 9 -10 17 31 31 87 31 29 0 76 7 103 14 65 18 75 19 81 3z
m-2665 -78 c159 -19 237 -59 257 -131 21 -76 -21 -146 -100 -170 -44 -13 -41
-18 26 -43 98 -36 143 -101 134 -196 -7 -67 -43 -110 -125 -151 -66 -32 -70
-33 -198 -32 -304 2 -448 9 -453 22 -2 6 5 12 15 13 33 1 54 7 69 20 12 10 14
59 12 318 l-3 306 -57 3 c-55 3 -71 13 -47 28 37 22 327 31 470 13z m4474 -78
c3 -5 -4 -33 -15 -61 -11 -28 -20 -55 -20 -60 0 -6 30 -10 66 -10 57 0 65 -2
62 -17 -3 -15 -17 -19 -75 -23 -39 -3 -73 -7 -76 -10 -2 -3 -15 -34 -30 -70
-14 -36 -44 -109 -66 -163 -69 -166 -52 -195 62 -108 44 33 69 46 78 40 21
-13 -87 -110 -163 -148 -72 -37 -115 -39 -147 -10 -20 19 -22 28 -16 68 4 25
36 120 71 211 35 91 64 171 64 178 0 7 -16 12 -43 12 -50 0 -62 7 -46 27 7 7
32 13 61 13 l49 0 29 64 c16 35 35 66 42 69 23 9 107 7 113 -2z m-2271 -110
c5 -8 -3 -32 -49 -136 -7 -16 -29 -72 -50 -123 -20 -51 -45 -111 -55 -134 -37
-82 3 -91 78 -18 28 28 56 50 61 50 47 0 -64 -121 -150 -164 -86 -43 -149 -30
-149 31 0 14 11 57 25 96 14 38 24 74 23 78 -2 5 -34 -23 -73 -62 -142 -143
-268 -197 -360 -154 -100 48 -73 209 57 343 132 137 331 216 457 182 35 -9 46
-9 64 4 24 16 112 22 121 7z m-1564 -243 c3 -130 8 -240 12 -243 4 -4 22 -10
39 -14 18 -4 34 -12 37 -19 3 -9 -34 -12 -152 -12 -126 0 -156 3 -156 14 0 7
14 16 30 20 17 3 34 14 38 25 4 11 6 92 4 179 l-3 160 -30 11 c-43 15 -32 31
37 59 32 13 70 32 84 43 53 40 55 35 60 -223z m433 233 c48 -19 43 -48 -43
-244 -44 -101 -80 -190 -80 -198 0 -42 75 -52 146 -20 67 30 170 134 204 206
35 74 36 84 10 135 -11 22 -20 49 -20 61 0 54 70 79 110 39 72 -72 -65 -327
-242 -447 -54 -38 -156 -73 -209 -73 -42 0 -96 23 -116 49 -18 23 -16 108 4
161 10 25 39 86 65 137 54 104 61 138 26 128 -13 -4 -44 -28 -70 -53 -38 -36
-51 -43 -60 -34 -19 19 55 89 137 128 73 36 98 40 138 25z m2094 -10 c56 -26
77 -60 70 -114 -11 -80 -97 -130 -290 -168 -54 -10 -109 -19 -122 -19 -22 0
-25 -4 -25 -35 0 -81 67 -133 155 -119 47 7 143 57 152 79 7 20 33 19 33 0 0
-19 -52 -70 -109 -106 -120 -77 -295 -55 -361 46 -112 170 128 453 385 454 48
0 83 -5 112 -18z m401 3 c27 -19 28 -44 2 -126 -11 -34 -20 -67 -20 -72 0 -5
29 23 65 61 89 97 183 147 276 148 133 0 139 -48 35 -268 -68 -144 -80 -187
-48 -187 25 0 71 33 108 77 26 30 35 35 45 26 28 -27 -111 -153 -197 -179 -60
-18 -113 -5 -115 29 -3 57 21 130 101 302 18 39 33 86 34 105 1 34 0 35 -35
34 -89 -3 -257 -176 -341 -351 -21 -45 -45 -89 -54 -98 -19 -19 -122 -21 -129
-2 -3 7 22 80 56 162 89 220 102 256 91 267 -13 13 -59 -12 -96 -51 -31 -33
-56 -40 -56 -17 0 27 119 117 187 142 50 17 64 17 91 -2z m1566 -17 c69 -54
56 -142 -29 -196 -52 -33 -164 -66 -283 -83 l-82 -11 0 -34 c0 -131 174 -160
292 -49 15 14 32 26 38 26 43 0 -61 -108 -138 -143 -36 -17 -66 -22 -127 -22
-98 0 -151 24 -192 87 -37 56 -39 151 -4 217 48 92 159 185 265 223 38 14 73
18 137 15 76 -3 91 -6 123 -30z"/>
<path d="M4199 3776 c-87 -23 -169 -87 -192 -148 -3 -10 -12 -18 -19 -18 -30
0 -136 -60 -166 -94 -34 -38 -42 -88 -22 -126 8 -14 4 -21 -18 -36 -47 -30
-120 -114 -133 -151 -6 -19 -9 -55 -5 -79 5 -42 4 -44 -37 -73 -148 -102 -189
-250 -97 -349 24 -25 24 -27 7 -44 -48 -49 -77 -145 -63 -203 10 -38 77 -98
134 -118 l49 -18 -5 -44 c-12 -115 93 -204 263 -221 59 -6 65 -9 92 -45 34
-47 111 -102 173 -125 71 -25 195 -30 265 -9 78 22 143 56 182 94 l31 31 39
-36 c77 -73 185 -109 307 -102 120 7 187 37 263 115 61 61 65 63 130 73 97 14
153 35 196 76 46 44 57 70 57 134 l0 49 65 31 c132 63 156 148 80 275 -35 58
-35 58 -16 79 53 58 65 139 32 211 -17 37 -114 139 -154 161 -15 9 -16 15 -7
41 24 67 -25 155 -134 240 -23 18 -26 25 -17 42 39 73 -14 144 -151 205 -32
14 -58 29 -58 34 0 6 -20 33 -45 60 -106 118 -327 134 -516 38 l-69 -35 -69
35 c-115 58 -266 79 -372 50z m289 -52 c69 -28 111 -51 125 -69 11 -15 7 -385
-4 -385 -6 0 -20 7 -33 15 -54 36 -266 60 -266 31 0 -9 21 -15 73 -20 123 -11
198 -42 226 -93 7 -14 11 -90 11 -222 l0 -199 -36 -12 c-53 -18 -164 -8 -209
19 -44 26 -68 27 -63 4 8 -43 171 -80 273 -63 l30 5 0 -129 0 -129 -75 -19
c-77 -19 -192 -25 -232 -12 -65 20 -108 76 -117 154 -5 37 -10 46 -28 48 -20
3 -23 -1 -23 -29 0 -53 22 -109 56 -145 78 -79 189 -90 397 -39 l27 7 0 -201
0 -200 -36 -36 c-51 -51 -106 -83 -171 -100 -32 -8 -60 -15 -63 -15 -4 0 -7
33 -7 73 0 53 -6 84 -22 117 -29 62 -78 120 -102 120 -28 0 -24 -16 15 -62 56
-65 80 -160 56 -222 -8 -22 -14 -25 -42 -20 -86 16 -185 76 -228 139 -28 41
-31 42 -98 48 -162 16 -242 74 -242 179 l0 47 73 34 c96 45 163 120 120 134
-6 2 -28 -15 -50 -38 -37 -41 -121 -89 -155 -89 -33 0 -124 47 -147 76 -54 68
3 220 95 253 27 10 85 15 187 15 102 1 147 4 147 12 0 6 -14 14 -31 18 -54 11
-221 6 -287 -8 -63 -14 -63 -14 -87 12 -13 14 -28 45 -34 69 -10 37 -9 50 8
87 24 56 80 118 142 158 27 17 49 32 49 33 0 2 -7 19 -15 40 -15 34 -15 41 1
81 17 45 103 134 129 134 7 0 47 -38 89 -84 42 -46 110 -110 151 -142 92 -70
98 -95 35 -155 -22 -21 -40 -41 -40 -44 0 -3 11 -5 24 -5 34 0 82 44 96 86 12
35 12 35 54 27 49 -9 113 -10 122 -1 15 15 -11 28 -57 28 -66 0 -142 39 -241
124 -90 77 -214 218 -223 254 -11 45 25 94 96 129 35 18 78 33 94 33 42 0 105
-31 153 -75 40 -35 62 -39 62 -10 0 22 -71 74 -132 97 -32 11 -58 24 -58 27 0
4 14 23 31 44 33 41 93 76 149 88 64 14 185 2 258 -27z m563 22 c73 -17 136
-61 170 -119 8 -13 6 -18 -8 -23 -10 -3 -45 -18 -79 -35 -66 -32 -110 -71 -99
-88 9 -16 31 -13 46 6 23 27 112 79 147 86 44 9 132 -25 177 -67 65 -61 48
-109 -91 -256 -124 -132 -247 -209 -340 -215 -61 -3 -76 -11 -54 -26 14 -10
84 -6 143 7 24 6 27 3 27 -18 0 -31 32 -73 71 -94 47 -24 55 -6 15 35 -23 24
-39 51 -42 73 -6 35 -4 37 57 79 35 24 108 88 162 142 l98 100 36 -30 c20 -16
52 -51 71 -78 34 -50 36 -62 17 -135 -5 -20 -1 -28 22 -42 38 -24 93 -76 125
-118 52 -70 54 -148 5 -206 l-23 -26 -103 17 c-135 23 -289 13 -278 -18 2 -8
46 -10 133 -9 146 3 223 -12 254 -50 36 -43 55 -92 55 -145 0 -44 -5 -56 -29
-82 -16 -17 -54 -40 -84 -51 l-54 -20 -59 26 c-33 15 -75 44 -94 65 -38 42
-65 50 -65 20 0 -32 103 -111 163 -126 48 -13 57 -75 21 -147 -26 -51 -137
-97 -234 -98 -52 0 -58 -3 -90 -50 -30 -44 -54 -66 -105 -95 -44 -25 -151 -52
-162 -41 -4 4 -7 38 -7 75 0 72 22 124 78 183 14 15 26 32 26 38 0 22 -38 8
-72 -27 -55 -57 -78 -115 -78 -200 l0 -72 -32 6 c-61 11 -136 51 -177 93 l-41
42 -1 167 c-1 91 -2 181 -4 200 -3 37 -12 37 120 12 169 -32 290 20 330 140
21 61 17 94 -10 94 -14 0 -21 -8 -23 -25 -5 -48 -27 -105 -50 -131 -13 -15
-48 -34 -79 -44 -49 -16 -66 -17 -132 -6 -105 16 -149 31 -154 52 -3 10 -4 69
-3 131 1 107 2 113 21 109 11 -2 56 -4 100 -4 67 -1 90 3 138 25 33 16 57 33
57 42 0 22 -17 20 -75 -9 -39 -19 -66 -24 -120 -24 -120 0 -116 -7 -117 216
-1 179 0 193 20 227 29 49 89 75 207 88 91 10 115 21 78 35 -31 12 -194 -15
-247 -41 -28 -14 -51 -24 -52 -23 -6 6 -10 387 -5 395 10 16 120 67 171 80 91
23 140 25 211 8z"/>
<path d="M2060 810 c-19 -19 -20 -31 -18 -138 l3 -117 79 -3 c148 -5 226 43
226 140 0 43 -4 54 -33 83 -39 39 -89 55 -174 55 -50 0 -67 -4 -83 -20z"/>
<path d="M2045 487 c-4 -14 -5 -79 -3 -146 3 -110 5 -123 26 -143 20 -21 32
-23 112 -23 76 0 96 4 134 24 56 31 86 82 86 147 0 63 -27 107 -82 135 -35 18
-65 23 -155 27 l-112 4 -6 -25z"/>
<path d="M4155 626 c-69 -22 -102 -44 -169 -112 -106 -107 -163 -245 -120
-288 40 -41 126 -3 232 103 172 170 223 253 178 290 -22 19 -77 22 -121 7z"/>
<path d="M5225 624 c-51 -26 -106 -86 -136 -149 -16 -33 -29 -66 -29 -72 0
-26 126 -6 197 30 49 26 93 85 93 127 0 41 -7 53 -37 69 -29 15 -52 14 -88 -5z"/>
<path d="M7160 624 c-63 -27 -134 -122 -156 -208 -6 -24 -4 -26 29 -26 53 0
162 37 198 67 33 28 59 78 59 113 0 28 -44 70 -72 70 -13 -1 -39 -8 -58 -16z"/>
</g>
</svg>
