<?xml version="1.0" standalone="no"?>
<!DOCTYPE svg PUBLIC "-//W3C//DTD SVG 20010904//EN"
 "http://www.w3.org/TR/2001/REC-SVG-20010904/DTD/svg10.dtd">
<svg version="1.0" xmlns="http://www.w3.org/2000/svg"
 width="1200.000000pt" height="794.000000pt" viewBox="0 0 1200.000000 794.000000"
 preserveAspectRatio="xMidYMid meet">
<g transform="translate(0.000000,794.000000) scale(0.100000,-0.100000)"
fill="#2b5215" stroke="none">
<path d="M5995 6800 c-27 -5 -88 -9 -135 -9 -82 -1 -176 -10 -325 -32 -173
-25 -395 -68 -417 -80 -10 -5 -25 -9 -35 -9 -9 0 -30 -4 -47 -9 -152 -44 -183
-54 -196 -61 -9 -4 -31 -11 -50 -15 -19 -4 -64 -19 -100 -32 -36 -14 -90 -34
-120 -45 -75 -27 -76 -27 -242 -107 -81 -39 -149 -71 -152 -71 -2 0 -40 -22
-83 -48 -43 -27 -103 -64 -133 -82 -124 -76 -348 -245 -445 -335 -124 -115
-155 -146 -155 -154 0 -5 -11 -16 -25 -25 -72 -48 -347 -393 -370 -467 -7 -21
38 -109 55 -109 6 0 10 -7 10 -15 0 -16 101 -85 125 -85 7 0 17 -4 20 -10 9
-14 161 -13 188 2 12 6 87 74 167 151 386 373 707 597 1094 762 461 197 998
280 1590 246 353 -20 634 -60 1001 -141 50 -11 128 -23 175 -26 79 -5 89 -4
140 23 75 39 100 78 100 159 0 43 4 64 12 64 18 0 175 -83 325 -171 142 -84
306 -193 473 -315 125 -91 153 -104 221 -104 110 0 187 41 208 110 11 36 10
45 -5 68 -54 86 -398 365 -552 447 -26 14 -67 38 -92 54 -132 81 -396 202
-555 252 -22 7 -44 17 -50 21 -5 4 -18 8 -30 8 -12 0 -25 4 -30 9 -14 13 -209
62 -365 92 -30 6 -75 15 -100 20 -123 25 -262 43 -470 60 -163 14 -561 19
-625 9z m300 -44 c138 -2 300 -9 360 -14 213 -21 308 -33 327 -43 11 -6 26 -8
34 -5 21 8 155 -23 174 -39 11 -10 20 -11 34 -3 29 16 167 -20 174 -46 4 -15
11 -17 48 -12 31 4 47 1 58 -9 8 -8 18 -15 22 -15 4 0 27 -9 51 -21 35 -17 46
-19 58 -9 20 17 79 -6 71 -27 -5 -11 1 -13 27 -8 24 5 37 2 46 -9 8 -9 22 -16
32 -16 11 0 19 -4 19 -10 0 -5 7 -10 15 -10 8 0 15 -4 15 -8 0 -4 14 -13 31
-19 17 -7 33 -21 36 -32 6 -24 7 -25 33 -9 15 10 22 9 38 -5 10 -9 24 -17 30
-17 7 0 20 -4 30 -9 9 -6 42 -21 72 -35 30 -14 49 -25 43 -26 -7 0 -13 -5 -13
-10 0 -6 11 -8 25 -4 23 6 64 -16 103 -53 6 -6 21 -15 32 -18 11 -3 20 -13 20
-21 0 -10 8 -14 22 -12 13 2 33 -8 50 -24 16 -14 47 -36 71 -47 23 -12 51 -28
61 -36 19 -14 19 -15 1 -35 -17 -19 -17 -20 9 -30 15 -5 33 -10 39 -10 17 -1
57 -36 57 -50 0 -7 8 -10 19 -7 14 3 17 0 14 -14 -4 -15 0 -19 21 -19 20 0 24
-4 19 -17 -5 -13 -2 -15 11 -10 13 5 17 3 13 -7 -3 -8 4 -21 16 -29 29 -18 29
-81 1 -102 -18 -13 -18 -14 -2 -20 51 -20 -65 -43 -129 -26 -33 9 -122 66
-193 124 -8 7 -44 34 -80 60 -36 26 -96 70 -135 98 -38 28 -83 58 -100 66 -16
9 -56 33 -87 54 -31 22 -60 39 -63 39 -4 0 -19 8 -33 18 -99 69 -443 232 -604
286 -146 49 -227 67 -448 102 -223 34 -550 42 -844 21 -131 -10 -161 -15 -170
-29 -8 -14 -7 -21 6 -34 15 -16 27 -16 140 -4 151 16 574 17 723 1 251 -26
457 -72 653 -147 120 -46 162 -85 162 -149 0 -61 -42 -109 -110 -125 -51 -12
-93 -6 -345 50 -119 27 -320 63 -500 89 -406 59 -1039 51 -1376 -18 -338 -69
-533 -134 -784 -261 -345 -175 -572 -345 -882 -662 -93 -95 -182 -186 -200
-204 -29 -28 -58 -40 -118 -47 -11 -1 -19 3 -18 9 1 6 -10 9 -28 6 -19 -3 -47
4 -75 19 -42 21 -44 24 -25 33 27 15 12 41 -18 31 -19 -6 -20 -4 -11 19 8 23
7 26 -10 26 -11 0 -20 5 -20 10 0 6 5 10 11 10 7 0 9 10 5 24 -3 14 -2 28 4
31 5 3 10 15 10 25 0 11 9 24 20 30 11 6 20 17 20 25 0 8 9 19 21 25 12 7 18
18 15 26 -4 11 0 13 19 8 15 -4 25 -2 25 5 0 6 -7 11 -15 11 -20 0 -19 12 5
38 11 12 20 25 20 30 0 6 9 12 19 15 11 3 28 22 38 43 14 30 25 40 46 42 21 3
32 12 45 40 27 60 54 87 81 84 19 -3 23 0 19 15 -4 16 -1 19 19 15 18 -3 22
-1 17 12 -8 21 13 45 91 104 33 25 64 52 68 59 4 7 14 13 21 13 8 0 16 9 19
20 3 11 13 20 23 20 9 0 32 16 51 35 21 22 43 35 60 35 21 0 23 3 14 14 -9 11
-6 16 16 25 15 7 41 19 56 27 24 13 26 18 15 31 -11 14 -9 15 20 9 19 -5 32
-4 32 2 0 5 11 13 25 16 14 4 25 11 25 16 0 6 7 10 16 10 11 0 15 6 12 18 -4
15 -1 18 18 14 17 -3 24 0 24 12 0 9 8 16 19 16 11 0 22 4 26 10 3 5 12 7 20
4 10 -4 18 3 25 20 5 15 17 26 29 26 25 0 91 28 91 39 0 5 33 15 73 22 39 6
66 14 60 16 -26 9 -13 33 17 33 21 0 30 5 30 16 0 13 7 15 31 10 24 -5 41 0
74 23 24 16 57 32 75 36 17 4 34 14 37 22 4 11 15 13 39 8 30 -5 34 -3 34 15
0 20 3 21 50 15 35 -5 50 -3 50 5 0 7 15 10 42 8 35 -2 43 1 46 15 3 14 7 15
17 7 17 -14 45 -2 38 16 -4 11 6 14 45 14 28 0 53 4 56 9 10 16 194 53 229 46
31 -7 31 -6 12 10 -19 16 -18 16 31 11 28 -2 68 0 90 6 21 5 53 11 71 13 17 2
37 6 44 10 12 8 66 13 204 19 39 2 93 7 120 12 28 4 56 7 63 6 6 -2 20 1 29 7
9 5 22 7 27 5 6 -2 124 -6 261 -8z"/>
<path d="M8190 6244 c0 -9 5 -14 12 -12 18 6 21 28 4 28 -9 0 -16 -7 -16 -16z"/>
<path d="M5420 5981 c0 -17 45 -23 132 -17 57 3 99 1 133 -9 28 -8 77 -22 110
-31 33 -9 71 -21 84 -28 44 -21 173 -8 219 22 50 32 314 50 405 27 32 -8 70
-15 83 -15 13 0 24 -4 24 -10 0 -5 8 -10 18 -10 9 -1 30 -11 46 -24 16 -14 35
-22 43 -19 7 3 13 0 13 -6 0 -19 39 -51 55 -45 8 4 15 1 15 -5 0 -6 5 -11 10
-11 17 0 51 -40 44 -51 -3 -6 3 -13 15 -16 12 -3 21 -11 21 -18 0 -15 43 -45
65 -45 8 0 15 -7 15 -15 0 -9 9 -15 24 -15 13 0 26 -7 30 -15 3 -8 9 -15 13
-14 28 5 53 -3 53 -16 0 -8 4 -15 9 -15 5 0 31 -22 59 -48 43 -42 50 -55 57
-100 5 -35 13 -57 27 -66 11 -8 17 -19 13 -26 -4 -6 -1 -18 6 -26 10 -13 10
-17 -1 -24 -12 -7 -11 -15 5 -44 10 -19 29 -40 41 -47 22 -11 38 -42 34 -67
-1 -9 5 -12 18 -8 25 8 57 -35 39 -53 -8 -8 -4 -11 16 -11 26 0 28 -2 32 -50
0 -8 4 -21 9 -28 4 -7 5 -24 2 -36 -4 -15 0 -28 9 -36 9 -7 15 -20 14 -29 -3
-27 12 -69 27 -75 8 -3 14 -11 14 -18 0 -15 67 -88 81 -88 5 0 9 -10 9 -21 0
-16 5 -20 19 -16 12 3 18 0 15 -7 -2 -7 9 -27 26 -46 16 -18 30 -43 30 -55 0
-11 7 -31 16 -44 12 -17 13 -26 5 -34 -16 -16 -14 -37 4 -37 18 0 20 -26 3
-34 -10 -5 -10 -7 0 -12 13 -6 15 -67 3 -119 -6 -29 -7 -29 -19 -10 -12 17
-13 15 -7 -23 4 -32 2 -44 -10 -48 -8 -3 -13 -10 -10 -15 3 -4 6 -24 7 -44 1
-20 5 -38 10 -41 4 -3 8 -20 8 -39 0 -19 5 -37 11 -41 6 -3 9 -17 6 -30 -3
-16 0 -24 9 -24 19 0 18 -17 -2 -28 -12 -7 -14 -14 -6 -28 14 -29 9 -90 -11
-112 -9 -10 -17 -25 -17 -33 0 -8 -9 -29 -20 -46 -20 -34 -44 -43 -54 -20 -3
6 -3 -2 0 -20 4 -26 2 -32 -18 -38 -26 -8 -58 -39 -58 -56 0 -6 -7 -8 -16 -5
-12 5 -15 2 -10 -10 4 -11 -1 -22 -14 -31 -14 -10 -19 -21 -15 -34 4 -11 2
-19 -5 -19 -6 0 -8 -10 -4 -25 7 -28 2 -30 -27 -14 -20 10 -20 10 -4 -14 15
-24 15 -26 -6 -40 -13 -10 -19 -22 -16 -31 3 -8 2 -18 -3 -21 -5 -3 -6 -13 -3
-21 5 -13 1 -15 -18 -9 -18 5 -20 4 -9 -4 12 -8 9 -14 -15 -35 -17 -14 -35
-26 -42 -26 -6 0 -13 -3 -15 -8 -3 -6 -113 -63 -163 -82 -31 -13 -75 -22 -133
-27 -46 -4 -55 -9 -79 -41 -70 -96 -191 -171 -338 -210 -153 -41 -386 -33
-520 18 -51 19 -116 55 -131 71 -16 18 -18 18 -45 -1 -52 -37 -136 -77 -185
-88 -160 -36 -228 -38 -399 -13 -134 19 -252 79 -354 179 -72 72 -76 74 -133
80 -32 2 -61 9 -64 13 -3 5 -16 9 -28 9 -26 0 -141 56 -170 83 -11 9 -26 17
-34 17 -9 0 -12 6 -8 16 3 8 2 12 -4 9 -13 -8 -43 22 -35 35 9 15 -14 40 -31
33 -18 -7 -18 8 1 33 21 28 18 37 -11 30 -21 -6 -25 -3 -23 11 2 19 -7 49 -22
73 -5 8 -12 23 -15 33 -11 30 -24 18 -24 -20 0 -40 19 -103 47 -156 30 -58
164 -181 235 -215 62 -30 164 -62 196 -62 8 0 42 -27 75 -61 143 -141 330
-209 575 -209 160 0 286 25 377 73 l65 35 53 -28 c163 -89 412 -110 633 -55
101 25 236 100 303 167 34 33 61 63 61 68 0 4 20 11 45 15 112 16 225 67 333
149 47 36 65 59 100 127 30 58 45 102 49 141 l6 57 62 29 c190 92 255 351 133
534 -22 31 -23 61 -4 77 24 20 56 107 62 169 6 54 -6 138 -26 182 -50 112
-116 196 -192 246 l-56 37 -4 86 c-3 68 -9 99 -31 144 -35 76 -97 150 -150
179 l-42 23 3 76 c4 85 -16 144 -69 200 -16 17 -29 34 -29 36 0 7 -22 24 -90
71 -53 37 -117 62 -157 62 -13 0 -25 13 -37 40 -36 81 -158 173 -281 211 -22
6 -49 15 -60 20 -57 22 -319 37 -330 19 -3 -5 -25 -10 -47 -10 -40 0 -94 -13
-130 -31 -10 -5 -24 -9 -31 -9 -8 0 -22 -9 -32 -20 -22 -25 -36 -25 -83 -1
-47 24 -124 51 -182 64 -66 14 -310 21 -310 8z"/>
<path d="M5320 5960 c-8 -5 -23 -10 -33 -10 -17 0 -129 -51 -185 -84 -33 -19
-110 -105 -129 -143 -8 -18 -23 -33 -32 -33 -85 -1 -280 -144 -297 -218 -4
-15 -10 -31 -14 -37 -17 -22 -30 -116 -19 -136 11 -21 4 -59 -11 -59 -26 0
-180 -180 -180 -209 0 -6 -4 -19 -9 -29 -29 -57 -40 -135 -20 -147 17 -11 38
26 45 78 4 27 12 51 18 53 7 3 25 30 42 62 16 31 34 62 40 67 6 6 17 24 25 42
7 18 24 37 36 44 13 7 23 18 23 25 0 7 6 14 13 17 8 2 12 24 12 60 0 43 4 59
18 69 10 8 18 18 17 23 -7 33 2 75 15 75 8 0 17 11 21 25 3 14 12 25 20 25 8
0 14 6 14 13 0 21 56 58 77 50 16 -6 16 -5 4 10 -12 15 -11 17 7 17 11 0 22 7
26 15 3 8 12 15 20 15 8 0 38 16 67 35 29 20 58 34 65 31 7 -3 10 2 7 15 -4
13 0 19 10 19 11 0 14 7 10 23 -5 22 -5 22 10 2 9 -11 17 -15 18 -10 1 6 2 17
3 25 2 8 3 23 4 34 2 14 5 16 15 7 10 -8 19 -6 35 9 12 11 23 20 25 20 3 0 32
18 65 40 38 25 71 40 91 40 17 0 31 5 31 10 0 6 11 10 24 10 14 0 28 5 31 10
8 13 -55 13 -75 0z"/>
<path d="M5455 5863 c-27 -2 -54 -8 -59 -14 -6 -5 -18 -9 -29 -9 -26 0 -119
-47 -163 -83 -44 -37 -94 -112 -94 -143 0 -24 -17 -34 -61 -34 -43 0 -130 -44
-178 -90 -70 -68 -87 -133 -56 -221 l16 -44 -28 -20 c-65 -46 -153 -140 -183
-196 -27 -51 -31 -68 -27 -112 2 -29 7 -61 11 -72 6 -17 -2 -27 -46 -55 -71
-46 -170 -145 -199 -200 -76 -145 -64 -274 35 -370 l36 -34 -39 -41 c-55 -55
-81 -121 -81 -201 0 -75 15 -116 61 -169 34 -38 121 -85 159 -85 18 0 20 -7
20 -72 0 -56 6 -85 24 -125 57 -121 214 -215 382 -230 l75 -6 35 -53 c40 -61
75 -89 161 -133 85 -42 170 -61 283 -61 104 0 157 10 240 42 64 25 153 96 176
140 l16 31 56 -61 c146 -157 447 -201 668 -96 64 30 156 112 174 153 11 27 18
30 68 36 98 10 195 36 255 68 120 63 201 190 195 305 l-3 56 38 8 c128 27 214
139 205 266 -5 65 -35 134 -86 193 l-35 40 40 42 c48 49 59 69 72 127 29 131
-80 327 -245 438 -50 33 -54 40 -43 69 15 39 10 105 -11 151 -22 49 -103 138
-171 188 l-48 35 21 46 c36 81 20 158 -46 224 -34 35 -143 89 -178 89 -41 0
-68 12 -68 29 0 25 -52 102 -89 134 -46 38 -111 75 -173 98 -41 15 -79 19
-172 19 -66 0 -136 -5 -155 -11 -80 -25 -188 -74 -223 -102 l-38 -29 -39 32
c-57 44 -153 85 -249 104 -80 16 -103 17 -207 9z m177 -64 c112 -23 216 -68
257 -112 l23 -26 2 -295 c0 -163 -2 -296 -5 -296 -3 0 -30 13 -60 29 -136 73
-330 83 -317 15 3 -16 13 -19 66 -20 35 -1 86 -5 113 -8 53 -7 169 -56 189
-80 17 -22 20 -663 2 -678 -7 -6 -53 -11 -105 -11 -101 1 -152 15 -228 63 -50
33 -79 31 -79 -4 0 -37 97 -90 205 -111 53 -10 112 -8 200 7 19 3 20 -3 21
-180 2 -211 8 -197 -106 -233 -46 -15 -93 -21 -162 -21 -116 0 -166 19 -240
93 -49 49 -78 118 -78 186 0 38 -16 49 -56 39 -25 -7 -26 -10 -21 -54 16 -119
61 -195 154 -259 76 -51 114 -63 219 -70 63 -4 97 -1 160 16 43 12 89 29 101
36 12 8 24 11 27 7 2 -4 3 -131 2 -282 l-1 -275 -27 -46 c-49 -84 -140 -144
-255 -170 -72 -16 -84 -10 -71 38 22 81 -29 236 -118 356 -29 40 -40 48 -62
45 -40 -5 -39 -33 6 -91 55 -72 81 -128 98 -209 15 -72 11 -130 -10 -147 -15
-13 -159 20 -217 49 -60 31 -113 84 -145 144 l-28 54 -90 4 c-109 6 -187 32
-260 86 -80 60 -110 111 -114 192 l-4 68 53 17 c107 35 167 73 219 139 29 37
29 40 14 58 -26 27 -49 22 -80 -19 -37 -50 -60 -69 -114 -97 -65 -34 -98 -38
-165 -21 -111 29 -165 96 -165 202 1 75 24 127 84 181 83 77 172 102 359 102
67 0 139 -5 160 -11 33 -9 42 -8 58 7 31 28 2 49 -88 62 -141 22 -285 8 -405
-39 -55 -21 -59 -21 -83 -5 -15 10 -39 38 -56 64 -23 37 -29 57 -29 104 0 75
30 154 82 213 42 47 140 126 197 157 40 22 48 44 26 68 -28 31 -31 99 -6 147
22 45 116 151 161 183 l27 19 56 -82 c66 -98 204 -237 298 -304 40 -28 68 -55
69 -66 0 -34 -39 -94 -90 -137 -50 -42 -51 -43 -33 -62 18 -17 21 -17 50 -3
41 20 98 85 125 139 l21 44 66 -19 c82 -23 164 -25 181 -4 21 26 -2 38 -100
51 -136 19 -198 53 -353 194 -78 71 -162 175 -232 286 -53 83 -56 92 -52 139
4 44 10 54 55 96 37 34 66 50 113 64 120 33 222 3 318 -95 53 -53 63 -60 81
-50 30 16 25 32 -25 88 -45 50 -148 112 -186 112 -56 0 -64 36 -20 97 77 107
263 165 423 132z m823 0 c111 -20 227 -95 266 -170 10 -21 19 -40 19 -42 0 -3
-21 -10 -47 -17 -73 -18 -160 -69 -204 -118 -44 -50 -48 -71 -19 -90 18 -11
26 -6 75 47 123 131 294 155 424 61 85 -62 91 -130 24 -239 -97 -155 -228
-302 -362 -405 -100 -76 -129 -88 -236 -91 -66 -3 -92 -7 -99 -18 -33 -51 102
-64 231 -23 19 6 25 1 38 -30 36 -86 123 -162 172 -149 19 4 24 11 21 33 -2
18 -10 28 -23 30 -29 5 -83 60 -106 106 -10 22 -19 41 -19 42 0 2 33 27 73 57
92 68 240 223 301 316 26 39 52 71 57 71 19 0 169 -158 184 -193 21 -50 19
-95 -5 -140 -11 -21 -18 -42 -16 -46 3 -4 35 -26 72 -47 81 -47 184 -155 219
-229 37 -80 36 -177 -4 -231 -15 -21 -38 -47 -49 -58 -20 -18 -23 -18 -56 -2
-107 51 -301 70 -440 45 -73 -13 -90 -21 -94 -42 -5 -27 31 -39 85 -26 71 16
268 16 333 0 158 -39 254 -144 253 -277 -1 -70 -17 -108 -67 -151 -46 -41 -96
-56 -165 -51 -89 7 -158 46 -214 121 -29 38 -54 46 -75 25 -21 -21 -13 -37 41
-92 59 -60 94 -81 169 -100 64 -16 81 -41 73 -104 -7 -62 -33 -110 -84 -160
-77 -73 -173 -110 -305 -116 -41 -3 -80 -7 -86 -11 -6 -3 -19 -23 -29 -44 -40
-77 -138 -148 -248 -176 -88 -23 -110 -20 -129 17 -35 68 4 215 88 325 27 36
47 72 44 79 -3 8 -19 14 -35 14 -23 0 -36 -10 -65 -48 -88 -121 -123 -237
-104 -345 5 -27 7 -52 3 -55 -8 -9 -108 14 -152 34 -61 28 -132 86 -164 133
l-29 44 0 290 c0 272 1 289 18 281 194 -85 369 -81 495 11 82 61 142 177 135
265 -3 42 -5 45 -34 48 -31 3 -31 3 -38 -55 -18 -161 -128 -263 -290 -267 -80
-2 -164 14 -237 45 l-49 21 0 184 0 184 28 -7 c51 -14 224 -7 277 12 96 33
162 97 135 130 -19 22 -32 19 -76 -20 -57 -51 -121 -70 -231 -68 -149 2 -134
-39 -131 346 l3 332 64 34 c84 44 149 61 242 61 58 0 80 4 90 16 20 25 -24 53
-82 54 -63 0 -185 -33 -258 -69 -40 -21 -61 -27 -61 -19 -4 165 3 595 10 607
18 35 155 93 295 124 38 9 101 7 160 -4z"/>
<path d="M4330 4771 c-64 -50 -130 -124 -130 -147 0 -3 -8 -18 -19 -32 -10
-15 -21 -40 -25 -57 -4 -16 -11 -50 -17 -75 -22 -98 1 -225 51 -277 15 -16 19
-29 14 -47 -3 -14 -10 -26 -14 -26 -11 0 -47 -95 -61 -163 -10 -45 -10 -69 0
-115 29 -128 70 -197 152 -253 62 -42 93 -49 103 -23 11 28 6 34 -14 22 -16
-10 -23 -9 -45 12 -14 13 -25 32 -25 42 0 15 -5 18 -20 13 -14 -4 -20 -2 -20
9 0 8 5 18 10 21 6 4 -7 20 -30 36 -22 16 -40 37 -40 47 -1 9 -7 35 -15 57 -9
25 -11 43 -5 49 14 14 12 50 -2 64 -8 8 -8 15 1 26 7 8 8 17 3 20 -14 8 -1 66
14 66 8 0 14 10 14 24 0 14 4 27 10 31 5 3 6 13 3 21 -3 9 0 20 7 24 18 11 3
71 -16 63 -20 -7 -18 17 4 34 15 13 14 14 -11 8 -26 -5 -27 -4 -16 16 9 17 8
31 -1 60 -20 58 0 200 32 236 11 12 17 27 13 33 -4 6 -1 17 5 25 6 8 9 18 6
24 -11 16 18 18 32 2 11 -13 12 -9 7 29 -5 40 -4 43 8 28 15 -19 27 -14 27 12
0 9 11 22 25 28 13 6 27 23 31 37 3 14 12 25 20 25 8 0 14 7 14 15 0 8 -1 15
-2 14 -2 0 -37 -26 -78 -58z"/>
<path d="M8713 4030 c-61 -14 -77 -29 -174 -165 -90 -125 -111 -152 -227 -285
-73 -83 -227 -235 -272 -269 -19 -14 -60 -47 -90 -72 -138 -117 -518 -336
-655 -379 -22 -7 -57 -21 -78 -31 -22 -11 -47 -19 -57 -19 -11 0 -22 -4 -25
-10 -3 -5 -16 -10 -29 -10 -12 0 -26 -4 -32 -9 -5 -4 -31 -14 -59 -21 -27 -7
-54 -16 -60 -20 -5 -4 -37 -13 -70 -20 -33 -7 -64 -17 -70 -20 -5 -4 -32 -10
-60 -14 -27 -3 -86 -12 -130 -21 -167 -32 -255 -44 -435 -61 -131 -13 -571 -7
-710 9 -241 29 -309 41 -645 112 -105 22 -239 24 -285 3 -42 -19 -75 -53 -89
-91 -8 -21 -7 -38 5 -73 8 -25 13 -48 11 -51 -5 -4 -31 7 -185 78 -45 22 -85
39 -87 39 -15 0 -460 218 -615 301 -238 127 -224 122 -311 116 -86 -6 -127
-24 -153 -67 -29 -49 -21 -67 67 -153 83 -83 94 -93 157 -137 19 -13 43 -31
52 -40 37 -34 312 -198 443 -265 747 -382 1697 -514 2596 -361 371 63 786 200
1135 373 233 116 398 220 576 361 82 66 307 286 383 376 58 69 219 290 237
326 7 14 24 43 39 65 31 47 72 135 124 260 55 135 43 195 -50 235 -42 19 -117
23 -172 10z m98 -53 c-14 -14 -15 -90 -1 -82 6 4 8 15 5 25 -4 12 1 22 13 29
24 13 32 5 32 -27 0 -17 4 -22 14 -19 28 11 35 -55 11 -87 -8 -11 -15 -32 -15
-47 0 -14 -7 -32 -15 -39 -8 -6 -13 -17 -12 -23 1 -7 -8 -12 -20 -11 -13 0
-23 -5 -23 -13 0 -7 11 -13 25 -13 16 0 25 -6 25 -15 0 -8 -4 -15 -10 -15 -5
0 -10 -7 -10 -15 0 -8 -9 -19 -20 -25 -11 -6 -18 -15 -15 -21 4 -5 3 -9 -2 -8
-19 3 -27 -2 -14 -10 10 -7 4 -22 -30 -72 -23 -35 -48 -69 -53 -75 -6 -6 -22
-26 -36 -44 -25 -33 -50 -65 -100 -125 -55 -66 -241 -246 -335 -324 -386 -320
-861 -559 -1430 -719 -381 -107 -671 -144 -1130 -145 -331 0 -504 12 -740 53
-167 28 -263 47 -310 60 -16 5 -49 13 -72 19 -80 20 -128 34 -188 53 -33 10
-76 23 -95 29 -49 15 -142 49 -162 60 -10 5 -22 9 -28 9 -21 0 -327 148 -415
201 -27 16 -58 32 -67 36 -10 3 -18 9 -18 14 0 5 -5 9 -11 9 -5 0 -37 18 -69
40 -32 22 -63 40 -68 40 -4 0 -17 8 -28 18 -10 10 -35 29 -54 42 -52 36 -64
50 -68 79 -4 32 -16 46 -32 36 -8 -5 -6 -11 7 -21 14 -11 15 -13 3 -14 -8 0
-21 9 -27 19 -10 15 -9 22 2 31 8 7 15 18 15 26 0 20 -21 28 -31 13 -5 -8 -9
-9 -9 -3 0 14 41 58 68 73 30 16 55 14 48 -4 -3 -8 -1 -15 3 -15 5 0 11 6 14
13 3 9 16 6 51 -10 25 -13 55 -23 66 -23 10 0 22 -4 25 -10 3 -5 23 -17 43
-26 20 -8 46 -21 57 -27 11 -6 31 -16 45 -24 14 -7 19 -13 13 -13 -7 0 -13 -5
-13 -11 0 -7 10 -9 24 -5 14 3 27 2 31 -3 12 -20 114 -71 142 -71 17 0 34 -8
43 -20 9 -12 26 -20 43 -20 24 0 27 -3 18 -14 -17 -21 3 -29 35 -14 22 10 28
10 32 0 2 -6 10 -12 17 -12 8 0 11 -7 8 -20 -4 -15 0 -20 15 -20 12 0 24 5 27
11 4 6 19 -3 37 -21 22 -23 33 -29 41 -21 13 13 57 15 57 2 0 -5 -6 -11 -12
-14 -7 -2 -1 -8 15 -12 27 -7 38 -25 15 -25 -6 0 -9 -3 -5 -6 3 -4 25 1 49 11
28 11 44 13 46 6 2 -6 12 -11 22 -11 10 0 38 -10 62 -21 23 -12 52 -25 63 -30
11 -4 49 -20 85 -34 366 -149 560 -184 1050 -192 268 -4 342 -1 497 15 100 11
187 23 192 27 16 9 13 41 -4 55 -11 9 -26 9 -62 1 -128 -28 -260 -36 -573 -36
-350 1 -410 6 -677 56 -189 35 -381 119 -414 180 -15 28 4 72 38 90 41 22 172
16 323 -16 74 -15 159 -31 187 -36 29 -5 79 -14 110 -19 159 -28 275 -35 603
-34 344 0 526 9 536 25 3 5 27 9 55 9 27 0 58 5 69 12 15 10 29 10 62 1 26 -7
49 -8 58 -3 13 8 13 9 -2 10 -9 0 -19 4 -23 9 -5 9 135 6 162 -4 7 -2 15 4 18
14 5 15 21 20 90 26 50 4 101 15 124 26 22 10 49 19 60 19 11 0 23 5 26 10 3
6 20 10 37 10 16 0 41 9 55 20 16 12 34 18 45 14 11 -3 20 0 24 10 3 9 14 16
24 16 10 0 23 7 30 15 7 8 25 15 41 15 16 0 49 12 74 26 25 14 54 24 63 23 43
-4 61 1 56 16 -4 10 0 15 14 15 11 0 25 7 32 15 7 8 20 15 30 15 20 0 77 27
86 41 3 6 17 14 30 20 14 5 30 21 37 36 9 22 18 27 37 25 20 -3 22 -2 12 11
-11 13 -7 15 27 13 22 -1 37 2 35 6 -9 13 16 38 37 38 11 0 19 5 19 10 0 6 7
10 15 10 8 0 15 4 15 9 0 5 11 12 25 15 17 4 22 11 18 22 -4 12 0 14 23 8 27
-7 28 -6 14 11 -14 17 -13 18 3 12 10 -4 17 -2 17 6 0 7 18 25 40 41 21 16 37
33 34 38 -3 5 5 6 19 3 14 -4 28 -2 31 4 4 6 2 11 -3 11 -6 0 -11 7 -11 15 0
8 4 15 10 15 5 0 18 10 30 22 11 12 37 30 57 39 28 13 38 24 38 41 0 23 6 25
38 13 11 -5 17 -2 17 8 0 8 -7 17 -15 21 -8 3 -15 10 -15 16 0 6 12 2 27 -7
25 -17 27 -17 21 -1 -5 12 -1 19 13 23 14 5 18 12 14 25 -4 13 1 22 15 30 11
6 20 17 20 24 0 18 22 26 49 19 24 -6 30 14 7 23 -8 3 -17 12 -20 19 -3 9 0
12 10 8 20 -7 73 43 68 65 -3 11 8 25 29 37 18 12 32 29 32 40 0 31 14 47 37
39 19 -6 20 -3 15 22 -5 26 -1 31 32 47 21 9 49 17 62 17 27 0 65 35 48 46 -6
3 -16 -1 -22 -11 -8 -10 -19 -14 -31 -9 -16 6 -15 9 10 19 37 15 110 17 95 2z"/>
<path d="M8807 3653 c-4 -3 -7 -13 -7 -21 0 -12 3 -12 15 -2 8 7 15 16 15 21
0 11 -14 12 -23 2z"/>
</g>
</svg>
