<svg version="1.1" xmlns="http://www.w3.org/2000/svg" style="display: block;" viewBox="0 0 2048 2048" width="1024" height="1024" preserveAspectRatio="none">
<path transform="translate(0,0)" fill="rgb(14,78,102)" d="M 909.107 658.473 C 947.982 659.112 980.805 666.199 1015.54 684.642 C 1102.85 647.467 1192.86 640.959 1251.63 727.959 C 1297.02 748.052 1328.95 772.933 1325.49 826.061 C 1329.22 829.337 1332.85 832.718 1336.39 836.199 C 1363.71 863.218 1372.85 885.299 1372.95 922.824 C 1419.63 964.795 1448.88 1013.15 1411.68 1072.91 C 1430.71 1105.31 1438.07 1135.72 1420.71 1171.1 C 1410.37 1192.17 1392.92 1202.78 1373.49 1214.24 C 1370.63 1252.54 1351.67 1279.77 1318.41 1298.99 C 1297.56 1311.03 1277.58 1314.44 1254.32 1318.23 C 1249.81 1322.34 1243.57 1330.19 1238.43 1335.21 C 1205.08 1367.73 1162.5 1381.7 1116.71 1381.71 C 1074.12 1379.13 1052.01 1372.94 1016.04 1350.42 C 946.893 1396.22 852.12 1392.85 791.296 1332.94 C 786.017 1327.73 780.752 1322.51 775.379 1317.4 C 713.944 1308.34 662.034 1282.32 657.851 1213.66 C 633.321 1201.71 613.891 1185.51 605.366 1158.92 C 593.445 1121.73 604.636 1103.76 619.688 1072.76 C 583.163 1011.51 611.769 966.113 659.17 923.303 C 659.004 878.049 674.055 855.702 707.641 826.832 C 701.518 774.073 739.596 747.608 782.106 727.58 C 812.648 680.891 853.761 660.992 909.107 658.473 z M 813.311 752.326 C 775.182 763.02 735.611 787.89 750.037 833.866 L 750.629 835.738 C 718.841 859.423 687.566 890.264 702.674 933.311 C 653.665 967.625 617.754 1016.46 662.565 1071.16 C 648.517 1094.57 634.588 1116.76 641.908 1145.2 C 648.775 1171.88 671.646 1189.05 697.301 1195.7 C 691.69 1254.06 730.868 1282.49 785.599 1287.13 C 791.486 1287.61 797.378 1288.02 803.274 1288.38 C 843.074 1366.76 966.147 1371.02 1016.52 1301.72 C 1034.4 1327.1 1065.18 1343.12 1095.39 1348.29 C 1104.29 1349.81 1113.3 1350.56 1122.32 1350.53 C 1163.8 1349.46 1210.01 1328.12 1226.94 1288.27 C 1242.76 1287.68 1256.05 1286.87 1271.52 1282.87 C 1307.87 1273.45 1336.1 1246.42 1334.64 1207.09 C 1334.47 1203.41 1334.2 1199.73 1333.84 1196.06 C 1400.21 1172.55 1405.1 1127.42 1368.95 1072.14 C 1373.02 1066.58 1376.62 1061.62 1379.98 1055.6 C 1406.88 1007.54 1370.32 958.278 1330.1 933.326 C 1341.84 888.427 1315.95 861.387 1282.69 835.703 C 1295.61 791.826 1266.75 765.843 1227.64 754.836 C 1225.64 754.275 1223.63 753.733 1221.62 753.21 C 1208.45 724.889 1193.68 708.747 1163.58 697.274 C 1130.23 684.561 1081.65 690.502 1049.89 705.393 C 1038.31 710.822 1026.86 718.764 1016.59 726.518 C 979.367 697.686 943.171 686.606 895.938 691.411 C 857.17 697.01 828.451 715.739 813.311 752.326 z"/>
<path transform="translate(0,0)" fill="rgb(14,78,102)" d="M 901.731 710.411 C 904.056 710.207 906.388 710.097 908.721 710.08 C 939.354 709.718 975.504 718.163 999.224 738.557 C 1009.01 746.973 1005.45 774.883 1005.39 788.001 C 1005.52 814.463 1005.39 840.925 1005 867.384 C 983.555 855.119 965.187 849.693 940.467 847.757 C 932.958 847.169 924.965 846.576 917.515 848.012 C 913.573 848.772 909.517 849.953 907.383 853.627 C 906.154 855.744 906.483 857.745 907.25 859.985 C 908.298 863.05 910.259 865.176 913.289 866.275 C 919.981 868.703 928.472 867.699 935.487 867.905 C 950.349 868.341 965.717 870.527 979.395 876.625 C 989.838 881.281 998.786 888.508 1002.66 899.616 C 1004.3 904.303 1005 909.348 1005.3 914.289 C 1006.39 932.035 1005.36 950.439 1005.35 968.244 C 1005.34 986.949 1006.24 1005.94 1005.76 1024.6 C 1005.7 1026.76 1005.36 1029.02 1004.22 1030.9 C 1001.95 1034.64 996.432 1036.71 992.483 1038.25 C 955.717 1052.63 927.188 1019.71 914.468 1022.49 C 911.75 1023.08 910.023 1024.23 908.491 1026.58 C 907.034 1028.81 906.96 1031.95 907.613 1034.41 C 908.908 1039.29 914.309 1042.98 918.306 1045.47 C 946.25 1062.9 974.456 1063.36 1005.4 1055.89 C 1004.75 1080.5 1006.56 1109.31 1004.92 1133.42 C 987.317 1142.56 962.951 1147.82 943.198 1148.41 C 866.635 1150.69 883.61 1085.63 871.322 1077.09 C 869.182 1075.6 866.806 1075.36 864.341 1076.02 C 862.093 1076.61 858.806 1078.09 857.741 1080.25 C 853.462 1088.93 858.148 1107.33 860.901 1116.28 C 866.579 1134.74 878.203 1149.12 895.4 1158.02 C 930.461 1176.16 969.644 1167.45 1005.23 1155.89 L 1005.07 1236.63 C 1005.19 1253.14 1009.05 1278.42 998.858 1291.74 C 981.437 1314.5 953.745 1325.32 926.234 1329.86 C 931.809 1291.67 920.743 1249.06 885.754 1225.27 C 880.107 1221.43 875.103 1228.02 873.651 1233.49 C 875.71 1242.78 887.545 1252.37 893.272 1261.2 C 908.189 1284.19 909.996 1304.19 905.241 1330.13 C 876.282 1328.52 846.298 1315.64 828.856 1291.48 C 824.315 1285.19 819.295 1272.79 812.933 1269.91 C 806.549 1267.03 796.529 1267.86 789.505 1267.38 C 770.208 1266.04 757.374 1262.78 741.116 1252.84 C 727.062 1243.32 707.784 1218.14 719.135 1198.56 C 720.976 1195.38 736.503 1190.1 740.883 1187.86 C 756.149 1180.06 776.408 1164.79 783.329 1148.77 C 784.584 1145.84 784.548 1142.51 783.232 1139.61 C 776.998 1125.71 766.277 1137.95 761.331 1144.84 C 734.29 1182.52 690.444 1189.21 663.456 1147.42 C 652.53 1130.5 667.951 1091.65 683.962 1080.89 C 703.11 1069.4 746.582 1066.7 769.226 1069.69 C 775.175 1069.85 795.116 1075.68 799.19 1071.69 C 822.487 1046.18 758.826 1050.59 754.288 1048.57 C 746.225 1044.99 679.877 1057.97 679.56 1057.73 C 649.024 1034.82 665.359 985.915 692.541 965.3 C 703.985 956.62 715.246 950.576 724.019 940.477 C 725.012 930.348 715.322 913.848 720.454 901.308 C 725.381 882.723 745.27 861.397 761.181 852.324 C 781.503 878.774 798.584 900.919 824.558 922.569 C 831.833 928.633 854.744 944.766 856.654 950.896 C 863.432 968.19 836.307 980.748 832.946 990.043 C 828.695 1001.8 845.24 1008.45 856.317 996.322 C 868.693 982.77 875.99 976.54 877.189 957.107 C 887.659 961.229 919.932 971.697 929.576 960.46 C 933.333 957.183 929.017 945.512 924.62 945.335 C 900.541 944.363 886.779 942.65 865.457 928.842 C 853.228 920.821 841.629 911.877 830.761 902.09 C 809.019 882.416 776.471 846.877 766.889 819.571 C 759.722 799.147 797.405 773.884 815.821 772.516 C 842.027 770.568 863.242 787.426 879.582 806.049 C 881.681 808.441 886.805 808.416 889.589 807.938 C 902.029 800.377 891.038 788.044 884.617 781.673 C 868.754 765.934 854.689 759.589 833.91 753.324 C 846.94 726.626 873.271 713.766 901.731 710.411 z"/>
<path transform="translate(0,0)" fill="rgb(14,78,102)" d="M 1113.51 710.406 C 1141.69 709.278 1167.06 716.372 1187.66 736.371 C 1191.85 740.441 1196.28 744.266 1197.2 750.262 C 1196.33 752.408 1196.42 753.142 1194.15 754.421 C 1189.52 757.017 1183.91 759.24 1179.01 761.375 C 1165.8 767.08 1156.4 774.319 1145.77 784.038 C 1135.4 793.512 1135.3 812.085 1153.22 806.171 C 1155.35 805.469 1163.68 796.228 1166.11 793.756 C 1176.78 782.886 1190.87 774.767 1206.1 772.622 C 1223.25 770.236 1239.33 779.383 1252.54 789.332 C 1259.74 794.755 1265.68 803.29 1266.53 812.598 C 1268.15 830.328 1251.29 847.201 1240.7 860.086 C 1216.69 889.291 1188.62 917.319 1155.31 935.738 C 1151.21 938.005 1139.18 941.433 1133.65 942.721 C 1124.57 944.745 1114.32 944.099 1105.5 946.913 C 1103 947.711 1100.8 953.338 1101.46 955.935 C 1102.19 958.806 1102.95 962.075 1106.05 963.318 C 1120.25 969.003 1140.99 962.103 1154.74 958.163 C 1157.59 974.977 1163.9 985.729 1176.74 996.932 C 1184.09 1003.35 1193.76 1006.18 1200.45 997.293 C 1201.74 990.774 1198.16 986.796 1193.11 983.004 C 1183.96 976.137 1164.15 955.734 1179.18 944.935 C 1214.48 919.573 1246.51 887.953 1271.83 852.447 C 1293.04 867.565 1322.7 895.638 1310.94 924.33 C 1302.96 942.264 1307.61 942.387 1322.2 951.984 C 1359.79 976.706 1388.48 1020.24 1351.22 1059.63 C 1319.03 1049.86 1289.89 1045.93 1256.22 1050.31 C 1250.44 1051.06 1229.99 1052.57 1228.53 1059.03 C 1225.73 1071.48 1236.79 1075.95 1247.36 1072.27 C 1283.3 1063.87 1314.82 1070.07 1349.66 1079.71 C 1358.81 1095.29 1367.93 1106.15 1370.54 1124.99 C 1374.77 1155.56 1348.05 1173.08 1321.41 1177.04 C 1305.11 1177.13 1289.58 1164.85 1278.36 1154.24 C 1272.96 1149.13 1256.57 1125.42 1249.07 1137.06 C 1238.96 1152.75 1273.08 1177.22 1284.42 1184.43 C 1291.38 1188.86 1303.39 1193.52 1311.49 1197.42 C 1322.39 1211.58 1307.65 1235.85 1297.32 1246.99 C 1273.12 1265.93 1253.9 1266.07 1224.97 1267.66 C 1209.29 1268.53 1207.53 1284.37 1199.03 1295.17 C 1180.03 1319.28 1154.92 1326.38 1125.68 1330.45 C 1120.45 1299.07 1123.43 1277.67 1144.83 1252.38 C 1148.98 1247.47 1156.12 1240.31 1157.93 1234.43 C 1152.2 1207.83 1127.41 1240.02 1121.46 1249.2 C 1104.89 1274.78 1099.41 1300.55 1105.16 1330.39 C 1079.4 1325.54 1060.09 1318.18 1040.82 1299.69 C 1022.52 1282.13 1027.62 1267.76 1027.44 1245.37 C 1027.07 1215.48 1026.98 1185.58 1027.16 1155.69 C 1064.86 1169.74 1119.48 1178.11 1151.97 1147.91 C 1168.51 1132.55 1174.42 1109.86 1175.19 1088.02 C 1175.3 1084.66 1174.41 1079.75 1171.5 1077.54 C 1168.02 1075.05 1167.03 1074.19 1162.8 1074.84 C 1151.53 1081.58 1156.53 1104.09 1147.8 1119.43 C 1142.31 1132.04 1132.24 1139.75 1119.14 1144.29 C 1093.25 1153.26 1051.32 1145.71 1027.75 1133.4 C 1026.58 1109.62 1026.92 1079.04 1027.55 1055.05 C 1061.93 1066.34 1088.3 1062.05 1119.47 1043.06 C 1127.54 1038.14 1133.16 1029.57 1123.16 1023.11 C 1117.79 1019.64 1100.22 1032.18 1094.47 1034.28 C 1071.68 1043.79 1049.09 1043.66 1027.65 1030.97 C 1024.81 997.455 1028.92 959.848 1027.35 926.095 C 1025.3 881.907 1058.5 870.39 1095.7 868.114 C 1105.83 867.494 1133.15 871.333 1128.31 853.531 C 1117.87 841.939 1082.42 849.426 1068.68 851.744 C 1052.83 854.416 1040.52 861.022 1027.74 870.371 C 1025.62 832.125 1027.65 789.375 1027.79 750.841 C 1027.88 725.283 1094.86 712.06 1113.51 710.406 z"/>
<path transform="translate(0,0)" fill="rgb(0,0,0)" fill-opacity="0.0117647" d="M 1349.79 952.038 L 1351.2 952.941 C 1349.63 957.188 1347.45 957.956 1343.58 959.567 C 1340.79 957.258 1341.46 958.646 1340.91 955.61 C 1343.16 953.373 1346.37 953.034 1349.79 952.038 z"/>
<path transform="translate(0,0)" fill="rgb(14,78,102)" d="M 1081.95 488.514 C 1171.58 487.402 1260.89 499.424 1347.03 524.198 C 1441.38 552.355 1535.05 598.583 1608.77 664.636 C 1617.27 673.297 1633.82 684.203 1638.83 694.869 C 1651.54 721.879 1609.86 733.202 1591.64 724.759 C 1577.08 718.012 1565.16 708.127 1552.77 699.24 C 1542.24 691.696 1531.57 684.359 1520.75 677.23 C 1488.07 655.876 1454.75 635.494 1420.86 616.113 C 1390.46 598.379 1355.88 577.159 1322.61 564.906 C 1230.41 530.949 1127.38 531.573 1030.78 539.301 C 1024.68 539.789 1007.14 540.822 1005.31 548.053 C 1003.13 556.716 1010.27 562.007 1018.5 561.281 C 1036.85 560.651 1054.33 557.426 1072.81 556.969 C 1165.6 554.672 1268.25 554.056 1351.39 601.113 C 1358.49 605.131 1373.2 618.257 1370.26 626.895 C 1360.79 654.678 1320.65 647.353 1298.63 644.073 C 1274.4 639.872 1252.98 635.475 1230.25 631.033 C 1141.38 614.521 1050.8 609.226 960.611 615.271 C 776.85 629.353 631.055 687.895 500.423 819.794 C 483.842 836.535 468.573 854.366 453.195 872.188 C 445.922 880.616 440.207 886.202 428.479 886.795 C 411.43 887.658 390.729 881.146 378.404 869.192 C 372.046 863.026 367.426 855.131 367.468 846.067 C 367.578 822.293 417.716 768.546 435.156 750.495 C 603.894 575.851 842.294 492.879 1081.95 488.514 z"/>
<path transform="translate(0,0)" fill="rgb(14,78,102)" d="M 1614.5 1095.21 C 1636.33 1093.87 1663.89 1099.41 1675.62 1120.27 C 1679.6 1127.35 1681.54 1139.86 1677.75 1147.4 C 1609.24 1283.75 1487.04 1387.89 1350.98 1453.59 C 1187.87 1531.52 994.536 1561.27 816.656 1537.36 C 757.393 1529.43 699.101 1515.43 642.699 1495.58 C 577.601 1472.94 516.219 1440.77 460.556 1400.12 C 453.544 1394.92 439.929 1385.86 436.411 1378.09 C 429.886 1363.67 442.396 1352.7 455.731 1349.52 C 479.669 1343.82 497.766 1356.65 517.414 1367.75 C 530.327 1375.05 543.313 1382.23 556.371 1389.26 C 586.283 1405.21 615.024 1418.02 644.426 1433.16 C 675.331 1446.05 716.058 1468.11 746.7 1478.39 C 839.991 1509.68 953.758 1504.79 1049.9 1489.9 C 1059.82 1487.23 1079.94 1487.72 1086.88 1479.99 C 1089.89 1476.63 1087.47 1465.29 1081.54 1465.02 C 1069.47 1464.47 1055.23 1468.48 1042.92 1470.43 C 960.811 1483.44 874.561 1486.68 792.825 1469.44 C 773.821 1465.43 702.374 1450.54 718.843 1418.04 C 723.73 1408.39 744.491 1404.81 755.046 1404.92 C 800.605 1405.44 845.848 1413.37 891.369 1416.95 C 987.515 1424.1 1084.19 1417.67 1178.54 1397.84 C 1270.21 1378.35 1346.27 1347.78 1421.97 1292.16 C 1476.77 1251.36 1525.59 1203.08 1566.99 1148.73 C 1574.42 1138.95 1581.32 1129.08 1588.48 1119.13 C 1596.24 1108.34 1600.99 1098.79 1614.5 1095.21 z"/>
</svg>