<svg version="1.1" xmlns="http://www.w3.org/2000/svg" style="display: block;" viewBox="0 0 2048 2048" width="1024" height="1024" preserveAspectRatio="none">
<defs>
	<linearGradient id="Gradient1" gradientUnits="userSpaceOnUse" x1="653.172" y1="815.564" x2="650.857" y2="820.375">
		<stop class="stop0" offset="0" stop-opacity="0" stop-color="rgb(1,0,1)"/>
		<stop class="stop1" offset="1" stop-opacity="0.0901961" stop-color="rgb(2,1,4)"/>
	</linearGradient>
</defs>
<path transform="translate(0,0)" fill="rgb(169,192,124)" d="M 1023.13 490.197 C 1077.68 463.642 1122.83 450.213 1184.62 465.335 C 1211.42 471.894 1242.31 489.632 1259.44 511.653 C 1265.06 518.872 1270.43 530.402 1275.42 538.801 C 1294.24 545.035 1316.59 557.254 1329.98 571.959 C 1352.45 596.652 1356.83 618.146 1355.71 649.933 C 1363.21 656.212 1371.32 665.967 1377.41 673.664 C 1397.03 698.442 1407.73 724.943 1403.82 756.883 C 1409.04 762.968 1416.68 769.98 1422.47 775.919 C 1465.88 820.493 1479.96 871.693 1447.8 927.121 C 1451.08 935.155 1455.8 943.242 1459.09 951.486 C 1482.68 1010.58 1457.65 1056.26 1406.21 1086.54 C 1405.88 1109.77 1398.22 1132.3 1384.32 1150.91 C 1356.3 1187.69 1320.49 1196.62 1277.75 1202.42 C 1242.14 1251.87 1195.55 1273.7 1134.91 1274.76 C 1093.48 1272.69 1057.02 1263.71 1023.71 1237.46 C 947.102 1297.28 824.048 1285.51 770.103 1201.2 C 702.407 1198.65 644.595 1158.17 641.874 1086.61 C 613.91 1069.7 593.083 1054.22 583.864 1020.94 C 574.403 986.795 583.6 957.376 600.373 927.43 C 576.725 890.239 576.859 851.138 597.527 812.52 C 609.573 790.013 626.203 775.027 644.168 757.476 C 638.851 710.391 659.437 681.2 692.408 650.194 C 687.922 582.678 720.084 566.146 772.864 537.612 C 802.466 483.969 845.559 462.575 905.838 459.452 C 949.524 459.427 985.188 468.912 1023.13 490.197 z M 805.21 567.231 C 758.892 582.19 717.436 605.653 741.56 661.786 C 720.34 671.801 696.373 699.846 688.694 722.024 C 682.629 739.537 684.302 753.269 689.855 770.309 C 660.502 792.915 631.104 818.734 625.529 858.178 C 621.53 886.473 633.692 904.874 648.455 927.115 C 638.139 945.146 626.97 960.203 623.167 981.303 C 615.556 1023.54 647.344 1053.84 685.577 1064.68 C 673.775 1140.03 731.03 1166.36 796.558 1167.52 C 824.164 1232.04 907.95 1254.15 969.347 1226.77 C 994.961 1215.34 1006.39 1204.23 1023.55 1182.65 C 1053.31 1217.2 1079.34 1234.37 1126.56 1237.96 C 1129.74 1238.22 1132.93 1238.34 1136.12 1238.31 C 1172.59 1237.19 1205.57 1225.76 1230.97 1198.56 C 1239.41 1189.63 1246.27 1179.33 1251.27 1168.11 C 1270.47 1167.4 1284.53 1166.75 1303.06 1160.92 C 1347.29 1146.99 1371.18 1110.93 1362.55 1065.23 C 1435.62 1038.22 1439.85 987.629 1399.09 927.518 C 1414.84 903.292 1427.56 883.052 1420.68 853.048 C 1413.33 820.948 1385.91 786.705 1357.33 771.172 C 1364.42 750.024 1365.19 733.662 1354.98 713.069 C 1344.7 692.358 1326.91 673.921 1307.68 661.278 C 1327.32 607.795 1291.38 583.295 1246.35 567.257 C 1245.27 566.87 1244.18 566.489 1243.1 566.113 C 1238.93 557.434 1235.52 550.475 1230.15 542.409 C 1192.22 485.402 1116.76 487.124 1061.02 514.679 C 1046.9 521.655 1036.48 528.953 1023.8 538.023 C 985.359 509.686 947.934 492.984 899.017 496.366 C 868.162 500.032 842.424 510.575 822.669 535.541 C 813.861 546.672 811.219 554.761 805.21 567.231 z"/>
<path transform="translate(0,0)" fill="rgb(169,192,124)" d="M 1123.26 514.356 C 1163.26 510.373 1210.17 525.885 1223.55 567.458 C 1206.7 573.177 1148.94 599.564 1160.52 623.091 C 1162.47 624.411 1163.06 625.064 1165.53 624.809 C 1172.95 624.044 1176.93 616.484 1181.42 611.495 C 1192.96 598.679 1216.86 583.759 1234.53 583.514 C 1251.2 583.283 1273.33 596.693 1284.6 608.406 C 1291.91 616.005 1296.86 625.921 1296.39 636.64 C 1295.3 662.054 1238.66 723.199 1218.02 742.413 C 1192.2 766.442 1164.17 786.753 1127.41 785.727 C 1124.3 785.64 1121.24 785.483 1119.04 787.991 C 1117.22 790.077 1116.8 792.817 1116.81 795.466 C 1124.05 813.261 1162.93 797.911 1175.73 792.963 C 1178.25 805.169 1180.65 817.537 1188.04 828.371 C 1192.71 835.213 1209.05 852.262 1218.68 843.294 C 1220.78 841.34 1220.63 839.768 1220.77 837.16 C 1216.67 828.5 1211.99 826.693 1205.03 820.447 C 1195.35 811.766 1193.62 797.603 1192.91 785.323 C 1198.42 780.363 1209.75 772.307 1215.99 767.262 C 1227.09 758.187 1237.59 748.41 1247.44 737.991 C 1264.66 720.075 1280.45 700.379 1294.88 680.225 C 1295.71 679.062 1297.31 678.442 1298.59 677.939 C 1302.82 678.464 1306.58 681.654 1309.86 684.446 C 1329.56 701.193 1348.73 724.829 1344.6 752.446 C 1343.56 759.397 1338.58 769.342 1339.16 775.515 C 1339.69 781.082 1353.99 788.444 1359.07 792.718 C 1380.17 810.464 1401.31 833.028 1404.96 861.503 C 1407.72 883.089 1397.94 901.294 1385.02 917.625 C 1345.38 905.001 1301.56 899.187 1260.7 909.318 C 1254.75 910.794 1253.57 916.185 1255.05 921.438 C 1256.8 923.291 1258.16 924.924 1260.97 924.844 C 1280.36 924.29 1297.89 919.956 1317.63 921.223 C 1340.5 922.691 1359.67 928.408 1381.55 933.72 C 1386.02 939.255 1390.2 945.017 1394.08 950.982 C 1404.16 966.209 1410.88 985.058 1406.87 1003.45 C 1403.69 1018.02 1394.02 1029.79 1381.63 1037.64 C 1325.96 1072.91 1294.6 1001.2 1284.6 1000.78 C 1282.17 1000.68 1279.3 1002 1277.7 1003.77 C 1276.24 1005.37 1275.96 1007.48 1276.17 1009.56 C 1277.66 1024.43 1306.56 1049.59 1319.37 1055.67 C 1327.29 1059.44 1338.28 1061 1345.01 1066.56 C 1348.1 1072.67 1347.43 1088.17 1346.01 1095.05 C 1342.25 1113.16 1332.38 1125.56 1317.46 1135.53 C 1294.79 1148.91 1271.96 1149.92 1246.58 1151.35 C 1236.36 1151.92 1231.35 1170.38 1225.33 1178.3 C 1204.15 1206.19 1175.24 1216.95 1141.71 1222.52 C 1137.78 1194.32 1138.35 1171.97 1151.96 1145.76 C 1158.73 1132.71 1171.77 1123.53 1177.34 1110.61 C 1178.17 1108.69 1174.5 1103.85 1173.03 1102.63 C 1161.5 1099.07 1147.25 1120.04 1141.78 1128.4 C 1124.7 1154.51 1117.15 1191.26 1123.94 1221.77 C 1090.34 1214.86 1048.57 1200.16 1035.47 1164.71 C 1032.8 1157.51 1034.15 1122.2 1034.17 1112.28 L 1034.13 1016.92 C 1108.61 1051.34 1194.89 1036.55 1194.67 940.602 C 1194.65 933.393 1178.7 924.151 1177.27 951.254 C 1174.77 998.647 1136.76 1021.51 1091.88 1015.16 C 1070.47 1012.14 1055.53 1006.91 1034.35 999.005 C 1033.01 969.391 1034.14 932.222 1034.02 901.806 C 1049.91 909.531 1067.69 912.517 1085.22 910.408 C 1099.29 908.817 1147.09 894.917 1144.58 876.671 C 1142.87 873.798 1143.11 873.803 1140.17 872.317 C 1130.57 872.191 1114.67 885.413 1101.61 889.61 C 1076.14 897.79 1058.04 894.081 1034.57 882.918 C 1033.47 863.21 1034.42 842.157 1034.19 822.263 C 1035.13 796.966 1032.58 767.506 1034.52 742.586 C 1037.29 707.069 1081.24 691.128 1111.51 691.387 C 1119.83 691.458 1135.83 692.059 1142.25 689.885 C 1148.8 674.504 1135.05 673.281 1123.63 673.36 C 1093.51 673.57 1056.71 680.694 1034.64 702.854 C 1034.36 653.474 1033.21 599.718 1034.48 550.623 C 1062.57 531.291 1089.13 518.16 1123.26 514.356 z"/>
<path transform="translate(0,0)" fill="rgb(169,192,124)" d="M 895.978 514.335 C 941.765 511.265 977.169 524.226 1013.51 551.525 C 1014.32 563.574 1013.35 582.973 1013.52 595.776 C 1013.97 631.601 1012.91 667.976 1013.76 703.808 C 989.027 681.103 962.538 673.835 928.976 673.634 C 920.819 673.585 906.457 673.143 902.919 681.675 C 904.021 690.679 912.516 691.131 919.89 690.791 C 954.97 689.175 1002.24 698.34 1012.13 738.081 C 1014.51 747.648 1013.19 763.33 1013.18 773.865 C 1013.15 806.696 1013.08 839.804 1013.81 872.647 C 1014.3 881.656 1010.86 884.469 1003.19 887.86 C 978.903 898.599 952.63 894.58 929.872 882.027 C 922.163 877.774 913.285 866.539 904.81 874.993 C 897.914 894.21 945.321 908.349 958.991 910.349 C 979.813 913.396 994.242 909.831 1013.72 903.117 C 1012.22 931.402 1013.64 969.83 1013.89 998.67 C 989.224 1009.13 958.646 1018.07 931.655 1015.52 C 900.563 1012.59 878.279 996.461 872.233 964.667 C 870.551 955.824 871.767 940.866 865.5 933.6 C 863.779 931.604 862.483 931.87 860.412 931.869 C 850.51 936.64 851.547 944.756 852.644 954.384 C 858.918 1009.44 898.026 1038.18 952.488 1033.15 C 976.122 1030.97 990.948 1025.08 1013.14 1017.38 L 1013.16 1119.88 C 1013.14 1130.76 1014.59 1148.36 1013.51 1158.66 C 1010.59 1186.52 973.339 1207.88 949.303 1215.05 C 940.559 1217.66 932.198 1219.06 923.701 1221.49 C 933.588 1181.18 917.025 1129.15 882.891 1104.01 C 879.595 1101.59 872.04 1103.8 870.535 1109.41 C 873.469 1119.36 886.115 1130.61 892.74 1141.07 C 907.901 1164.79 912.891 1193.62 906.59 1221.06 C 904.726 1221.16 902.859 1221.13 901 1220.98 C 872.22 1218.83 838.723 1202.23 822.395 1177.8 C 816.3 1168.68 812.973 1159.75 805.566 1151.38 C 798.961 1150.12 789.909 1150.11 782.959 1149.67 C 769.382 1148.8 759.463 1147.23 746.682 1143.07 C 709.489 1130.17 697.353 1103.11 703.326 1065.42 C 726.567 1058.78 746.444 1046.19 761.997 1027.54 C 768.326 1019.95 777.101 1011.08 768.691 1001.74 C 767.434 1001.18 762.726 999.24 761.78 1000.3 C 740.537 1024.2 728.627 1040.66 695.191 1049.29 C 630.182 1031.45 626.022 982.604 664.915 934.966 C 687.326 925.604 725.152 920.642 749.589 921.46 C 759.669 921.797 786.366 928.792 792.907 922.342 C 795.511 916.177 792.234 909.822 786.18 908.42 C 750.662 900.196 697.125 903.66 664.133 918.049 C 660.834 914.495 657.817 910.689 655.111 906.665 C 627.021 865.653 651.431 822.264 686.21 794.763 C 714.283 772.565 710.777 783.987 703.275 751.424 C 696.558 722.271 727.889 690.176 749.988 675.733 C 784.086 724.429 807.083 750.921 855.977 785.075 C 853.75 812.524 847.939 814.691 829.572 832.684 C 827.295 834.915 827.398 837.303 827.764 840.264 C 832.83 848.19 840.692 845.071 847.033 840.874 C 864.908 829.044 868.67 813.079 872.403 793.434 C 879.857 796.874 887.628 799.581 895.605 801.519 C 906.803 804.26 942.281 808.601 926.537 787.102 C 925.331 785.456 897.381 784.951 890.081 782.127 C 838.853 762.308 800.806 717.624 769.647 674.088 C 753.847 651.827 738.761 631.512 763.235 608.096 C 796.371 576.393 830.425 577.103 863.593 608.108 C 869.951 614.052 873.383 626.198 884.311 625.182 C 891.371 624.526 890.171 613.319 887.595 609.034 C 874.6 588.621 846.161 574.222 824.952 567.347 C 836.394 534.791 863.339 519.379 895.978 514.335 z"/>
<path transform="translate(0,0)" fill="rgb(169,192,124)" d="M 1743.09 803.345 C 1765.62 805.312 1769.6 820.259 1769.06 841.082 C 1768.26 871.986 1764.7 903.224 1762.87 934.184 L 1755.82 1041.3 C 1754.57 1063.22 1752.98 1111.45 1748.06 1130.97 C 1737.55 1172.72 1709.51 1221.67 1691.97 1261.94 C 1679.82 1289.12 1667.32 1316.39 1654.64 1343.31 C 1638.42 1377.74 1626.03 1407.74 1594.83 1431.48 C 1565.12 1454.1 1535.07 1473.41 1503.92 1493.8 L 1422.87 1547.98 C 1400.17 1563.02 1369.5 1580.47 1351.17 1599.18 C 1307.44 1643.81 1315.95 1714.83 1317.07 1772.68 C 1233.54 1772.02 1150 1772.08 1066.46 1772.87 C 1065.44 1744.03 1061.33 1714.24 1060.48 1684.64 C 1057.78 1590.35 1071.58 1483.11 1127.17 1404.2 C 1131.12 1395.84 1146.45 1379.49 1152.57 1372.42 C 1194.99 1323.46 1254.07 1293.63 1314.3 1272.61 C 1342.29 1262.84 1373.32 1255.9 1397.55 1238.12 C 1418.04 1222.67 1434.03 1205.41 1452.2 1187.2 C 1489.03 1150.26 1521.9 1097.13 1573 1079.59 C 1586.13 1075.09 1604.94 1075.87 1616.71 1082.59 C 1635.3 1093.19 1639.23 1118.58 1630.41 1136.83 C 1617.68 1161.46 1597.31 1183.66 1579.54 1204.89 C 1554.93 1234.34 1530.54 1263.98 1506.38 1293.8 C 1493.55 1309.45 1480.07 1325.38 1467.82 1341.47 C 1464.41 1345.95 1462.74 1349 1463.71 1354.27 C 1465.32 1356.35 1466.7 1357.87 1469.37 1358.52 C 1471.64 1359.08 1473.84 1358.52 1475.83 1357.39 C 1481.69 1354.04 1619.11 1187.24 1631.94 1169.15 C 1639.46 1158.56 1646.14 1146.78 1649.83 1134.26 C 1655.38 1115.48 1651.2 1099.86 1642.09 1083.14 C 1651.28 1038.4 1659.36 993.221 1668.42 948.44 C 1677.85 901.885 1681.99 809.795 1743.09 803.345 z"/>
<path transform="translate(0,0)" fill="rgb(169,192,124)" d="M 297.964 804.208 C 359.15 798.317 369.075 896.199 377.856 939.123 C 387.679 987.145 394.592 1035.85 405.259 1083.77 C 396.411 1100.73 391.726 1113.26 397.619 1132.88 C 406.066 1161 426.727 1182.93 445.042 1205.09 C 456.73 1219.24 468.54 1233.13 480.148 1247.3 L 535.704 1315.13 C 545.197 1326.72 554.524 1338.4 564.249 1349.86 C 567.812 1354.06 575.511 1362.6 581.858 1357.41 C 586.656 1352.9 584.975 1346.67 581.146 1342.04 C 571.475 1330.34 561.561 1318.8 551.976 1306.99 C 530.601 1280.34 508.959 1253.91 487.051 1227.71 C 472.998 1211.15 458.916 1194.62 444.861 1178.06 C 428.814 1159.16 409.913 1135.57 414.383 1108.92 C 416.15 1098.5 421.972 1089.19 430.576 1083.05 C 440.313 1076.18 454.846 1074.82 466.335 1077.29 C 505.028 1085.62 531.367 1117.52 556.494 1145.12 C 586.207 1177.75 615.256 1211.14 650.402 1237.87 C 673.192 1255.2 703.033 1261.43 729.496 1270.81 C 805.916 1296.54 873.621 1335.74 920.148 1403.53 C 973.123 1475.37 989.617 1586.37 987.774 1673.39 C 987.049 1707.63 983.373 1738.76 981.63 1772.31 L 730.557 1772.89 C 730.062 1731.29 736.352 1690.83 725.336 1649.99 C 711.836 1599.94 673.97 1580.14 633.741 1553.56 L 536.359 1488.37 C 502.373 1465.8 458.128 1439.84 430.54 1409.99 C 415.265 1393.47 397.446 1352.41 387.629 1331.17 L 358.439 1268.27 C 341.431 1231.74 323.421 1194.96 307.88 1157.83 C 295.95 1129.32 295.166 1090.45 293.052 1059.37 L 287.059 966.892 L 282.266 894.145 C 280.66 870.023 276.123 836.741 284.865 813.611 C 286.669 808.837 293.46 805.913 297.964 804.208 z"/>
<path transform="translate(0,0)" fill="rgb(169,192,124)" d="M 1022.39 257.473 C 1028.88 255.963 1071.94 257.361 1080.55 257.651 C 1189.84 261.33 1313.07 284.8 1413.64 329.147 C 1495.44 364.712 1570.4 414.3 1635.14 475.673 C 1645.58 485.387 1664.83 501.503 1669.55 514.762 C 1679.16 541.701 1644.57 552.411 1625.22 540.49 C 1613.04 532.991 1603.25 522.308 1592.56 512.738 C 1579.82 501.541 1566.94 490.505 1553.92 479.635 C 1511.55 444.51 1465.8 413.663 1417.36 387.547 C 1305.37 326.67 1175.21 305.103 1048.91 306.208 C 1041.49 305.94 1005.36 303.697 1016.38 320.667 C 1020.96 327.723 1076.57 324.759 1086.63 325.012 C 1126.14 326.093 1165.53 329.826 1204.54 336.186 C 1245.77 342.757 1367.12 369.019 1390.78 403.129 C 1394.57 408.606 1396.78 414.144 1395.3 420.854 C 1394.28 425.507 1391.42 428.997 1387.37 431.398 C 1364.91 444.714 1313.68 426.679 1289.77 420.202 C 1185.69 389.032 1071.27 373.49 962.73 382.278 C 796.83 394.474 642.02 470.166 530.51 593.605 C 510.91 615.464 491.076 639.093 473.853 662.876 C 454.3 689.876 444.237 722.301 404.953 724.185 C 389.845 724.85 375.106 719.399 364.067 709.062 C 348.446 694.578 340.349 664.142 350.802 645.904 C 377.188 599.869 414.484 551.297 449.981 512.933 C 603.548 346.964 796.508 264.6 1022.39 257.473 z"/>
<path transform="translate(0,0)" fill="rgb(169,192,124)" d="M 1663.2 839.184 C 1667.98 838.92 1671.27 838.174 1674.9 840.965 C 1673.81 850.082 1665.36 870.436 1663.22 881.767 L 1627.38 1067.36 L 1618.71 1063.86 C 1611.8 1061.61 1606.8 1060.39 1599.68 1058.8 C 1601.4 1034.68 1605.32 1008.19 1607.24 983.22 C 1610.61 952.848 1611.27 921.571 1617.51 891.631 C 1622.98 865.406 1636.11 845.455 1663.2 839.184 z"/>
<path transform="translate(0,0)" fill="rgb(169,192,124)" d="M 372.183 840.125 C 435.077 838.086 431.982 908.102 437.596 953.18 C 439.112 965.351 448.693 1053.87 446.493 1059.49 L 442.742 1060.56 C 433.979 1062.66 429.422 1064.21 420.946 1067.42 C 405.858 1008.24 398.594 939.217 384.68 879.186 C 381.727 866.446 375.875 853.1 372.183 840.125 z"/>
<path transform="translate(0,0)" fill="rgb(169,192,124)" d="M 1594.74 912.893 C 1598.05 919.369 1583.75 1039.58 1582.84 1059.43 C 1572.54 1062.2 1564.42 1064.43 1554.31 1068.11 C 1552.28 1064.83 1555.1 1041.45 1555.57 1035.33 C 1558.8 992.742 1553.82 939.679 1594.74 912.893 z"/>
<path transform="translate(0,0)" fill="rgb(169,192,124)" d="M 451.119 913.261 C 454.121 914.467 460.608 919.524 463.062 921.945 C 489.882 948.398 488.586 981.926 491.349 1016.58 C 492.736 1033.99 494.595 1051.95 495.139 1068.96 C 486.341 1065.05 474.743 1062.37 465.274 1059.99 C 464.145 1037.2 461.466 1012.88 459.445 990.065 C 457.23 965.069 455.161 937.929 451.119 913.261 z"/>
</svg>